<mxfile host="app.diagrams.net" modified="2023-06-13T02:14:21.691Z" agent="Mozilla/5.0 (Windows NT 10.0; Win64; x64) AppleWebKit/537.36 (KHTML, like Gecko) Chrome/114.0.0.0 Safari/537.36" etag="suUjP2FuMhpqyfh0ej0r" version="21.3.8" type="github">
  <diagram name="PÃ¡gina-1" id="WMEyhKcaEuoWZAi4I8aA">
    <mxGraphModel dx="2467" dy="694" grid="1" gridSize="10" guides="1" tooltips="1" connect="1" arrows="1" fold="1" page="1" pageScale="1" pageWidth="827" pageHeight="1169" math="0" shadow="0">
      <root>
        <mxCell id="0" />
        <mxCell id="1" parent="0" />
        <mxCell id="JJ6pGFsBF1nlRodCM9yX-1" value="&lt;font face=&quot;Comic Sans MS&quot; style=&quot;font-size: 13px;&quot;&gt;&lt;b style=&quot;font-size: 13px;&quot;&gt;Region_Costa&lt;/b&gt;&lt;/font&gt;" style="swimlane;childLayout=stackLayout;horizontal=1;startSize=30;horizontalStack=0;rounded=1;fontSize=13;fontStyle=0;strokeWidth=2;resizeParent=0;resizeLast=1;shadow=0;dashed=0;align=center;arcSize=4;whiteSpace=wrap;html=1;labelBackgroundColor=none;fillColor=#F2F200;fontColor=#0F0F0F;strokeColor=#0F0F0F;swimlaneLine=1;gradientColor=none;swimlaneFillColor=#FFFFFF;" vertex="1" parent="1">
          <mxGeometry x="-800" y="230" width="280" height="200" as="geometry" />
        </mxCell>
        <mxCell id="JJ6pGFsBF1nlRodCM9yX-2" value="&lt;font face=&quot;Comic Sans MS&quot; style=&quot;font-size: 13px;&quot;&gt;&lt;font color=&quot;#0f0f0f&quot; style=&quot;font-size: 13px;&quot;&gt;{&lt;/font&gt;&lt;br style=&quot;font-size: 13px;&quot;&gt;&lt;span style=&quot;white-space: pre; font-size: 13px;&quot;&gt;&lt;span style=&quot;color: rgb(15, 15, 15); white-space: pre; font-size: 13px;&quot;&gt;&#x9;&lt;/span&gt;&lt;font color=&quot;#ff0000&quot; style=&quot;font-size: 13px;&quot;&gt;&quot;&lt;/font&gt;&lt;/span&gt;&lt;font color=&quot;#ff0000&quot; style=&quot;font-size: 13px;&quot;&gt;id_region_costa&quot;&lt;/font&gt;&lt;/font&gt;&lt;font face=&quot;Comic Sans MS&quot; style=&quot;font-size: 13px;&quot;&gt;&lt;font color=&quot;#0f0f0f&quot; style=&quot;font-size: 13px;&quot;&gt; : &lt;/font&gt;&lt;font color=&quot;#009900&quot; style=&quot;font-size: 13px;&quot;&gt;int&lt;/font&gt;&lt;font color=&quot;#0f0f0f&quot; style=&quot;font-size: 13px;&quot;&gt;,&lt;/font&gt;&lt;br style=&quot;font-size: 13px;&quot;&gt;&lt;span style=&quot;color: rgb(15, 15, 15); white-space: pre; font-size: 13px;&quot;&gt;&#x9;&lt;/span&gt;&lt;font color=&quot;#ff0000&quot; style=&quot;font-size: 13px;&quot;&gt;&quot;nombre_departamento&quot;&lt;/font&gt;&lt;/font&gt;&lt;font face=&quot;Comic Sans MS&quot; style=&quot;font-size: 13px;&quot;&gt;&lt;font color=&quot;#0f0f0f&quot; style=&quot;font-size: 13px;&quot;&gt; : &lt;/font&gt;&lt;font color=&quot;#009900&quot; style=&quot;font-size: 13px;&quot;&gt;&quot;String&quot;&lt;/font&gt;&lt;font color=&quot;#0f0f0f&quot; style=&quot;font-size: 13px;&quot;&gt;,&lt;/font&gt;&lt;br style=&quot;font-size: 13px;&quot;&gt;&lt;span style=&quot;color: rgb(15, 15, 15); white-space: pre; font-size: 13px;&quot;&gt;&#x9;&lt;/span&gt;&lt;font color=&quot;#ff0000&quot; style=&quot;font-size: 13px;&quot;&gt;&quot;Superficie&quot; &lt;/font&gt;&lt;/font&gt;&lt;font face=&quot;Comic Sans MS&quot; style=&quot;font-size: 13px;&quot;&gt;&lt;font color=&quot;#0f0f0f&quot; style=&quot;font-size: 13px;&quot;&gt;: &lt;/font&gt;&lt;font color=&quot;#009900&quot; style=&quot;font-size: 13px;&quot;&gt;double&lt;/font&gt;&lt;font color=&quot;#0f0f0f&quot; style=&quot;font-size: 13px;&quot;&gt;,&lt;/font&gt;&lt;br style=&quot;font-size: 13px;&quot;&gt;&lt;span style=&quot;color: rgb(15, 15, 15); white-space: pre; font-size: 13px;&quot;&gt;&#x9;&lt;/span&gt;&lt;font color=&quot;#ff0000&quot; style=&quot;font-size: 13px;&quot;&gt;&quot;hora_local&quot;&lt;/font&gt;&lt;/font&gt;&lt;font face=&quot;Comic Sans MS&quot; style=&quot;font-size: 13px;&quot;&gt;&lt;font color=&quot;#0f0f0f&quot; style=&quot;font-size: 13px;&quot;&gt; : &lt;/font&gt;&lt;font color=&quot;#009900&quot; style=&quot;font-size: 13px;&quot;&gt;new Date(&quot;DD-MM-YY&quot;)&lt;/font&gt;&lt;font color=&quot;#0f0f0f&quot; style=&quot;font-size: 13px;&quot;&gt;,&lt;/font&gt;&lt;br style=&quot;font-size: 13px;&quot;&gt;&lt;span style=&quot;color: rgb(15, 15, 15); white-space: pre; font-size: 13px;&quot;&gt;&#x9;&lt;/span&gt;&lt;font color=&quot;#ff0000&quot; style=&quot;font-size: 13px;&quot;&gt;&quot;poblacion&quot;&lt;/font&gt;&lt;/font&gt;&lt;font face=&quot;Comic Sans MS&quot; style=&quot;font-size: 13px;&quot;&gt;&lt;font color=&quot;#0f0f0f&quot; style=&quot;font-size: 13px;&quot;&gt; : &lt;/font&gt;&lt;font color=&quot;#009900&quot; style=&quot;font-size: 13px;&quot;&gt;int&lt;/font&gt;&lt;font color=&quot;#0f0f0f&quot; style=&quot;font-size: 13px;&quot;&gt;,&lt;/font&gt;&lt;br style=&quot;font-size: 13px;&quot;&gt;&lt;span style=&quot;white-space: pre; font-size: 13px;&quot;&gt;&lt;span style=&quot;color: rgb(15, 15, 15); white-space: pre; font-size: 13px;&quot;&gt;&#x9;&lt;/span&gt;&lt;font color=&quot;#ff0000&quot; style=&quot;font-size: 13px;&quot;&gt;&quot;coordenadas&quot;&lt;/font&gt;&lt;font color=&quot;#0f0f0f&quot; style=&quot;font-size: 13px;&quot;&gt; : &lt;/font&gt;&lt;font color=&quot;#009900&quot; style=&quot;font-size: 13px;&quot;&gt;&quot;String&quot;&lt;/font&gt;&lt;font color=&quot;#0f0f0f&quot; style=&quot;font-size: 13px;&quot;&gt;,&lt;br style=&quot;font-size: 13px;&quot;&gt;&lt;/font&gt;&lt;span style=&quot;color: rgb(15, 15, 15); white-space: pre; font-size: 13px;&quot;&gt;&#x9;&lt;/span&gt;&lt;font color=&quot;#ff0000&quot; style=&quot;font-size: 13px;&quot;&gt;&quot;informe_tiempo&quot;&lt;/font&gt;&lt;font color=&quot;#0f0f0f&quot; style=&quot;font-size: 13px;&quot;&gt; : &lt;/font&gt;&lt;font color=&quot;#009900&quot; style=&quot;font-size: 13px;&quot;&gt;{}&lt;/font&gt;&lt;font color=&quot;#0f0f0f&quot; style=&quot;font-size: 13px;&quot;&gt;,&lt;br style=&quot;font-size: 13px;&quot;&gt;&lt;/font&gt;&lt;span style=&quot;color: rgb(15, 15, 15); white-space: pre; font-size: 13px;&quot;&gt;&#x9;&lt;/span&gt;&lt;font color=&quot;#ff0000&quot; style=&quot;font-size: 13px;&quot;&gt;&quot;estacion&quot;&lt;/font&gt;&lt;font color=&quot;#0f0f0f&quot; style=&quot;font-size: 13px;&quot;&gt; : &lt;/font&gt;&lt;font color=&quot;#009900&quot; style=&quot;font-size: 13px;&quot;&gt;{}&#x9;&lt;/font&gt;&lt;/span&gt;&lt;br style=&quot;font-size: 13px;&quot;&gt;&lt;font color=&quot;#0f0f0f&quot; style=&quot;font-size: 13px;&quot;&gt;}&lt;/font&gt;&lt;/font&gt;" style="align=left;strokeColor=none;fillColor=none;spacingLeft=4;fontSize=13;verticalAlign=top;resizable=0;rotatable=0;part=1;html=1;" vertex="1" parent="JJ6pGFsBF1nlRodCM9yX-1">
          <mxGeometry y="30" width="280" height="170" as="geometry" />
        </mxCell>
        <mxCell id="JJ6pGFsBF1nlRodCM9yX-4" value="&lt;font face=&quot;Comic Sans MS&quot;&gt;&lt;b&gt;Informe_Tiempo&lt;/b&gt;&lt;/font&gt;" style="swimlane;childLayout=stackLayout;horizontal=1;startSize=30;horizontalStack=0;rounded=1;fontSize=13;fontStyle=0;strokeWidth=2;resizeParent=0;resizeLast=1;shadow=0;dashed=0;align=center;arcSize=4;whiteSpace=wrap;html=1;labelBackgroundColor=none;fillColor=#F2F200;fontColor=#0F0F0F;strokeColor=#0F0F0F;swimlaneLine=1;gradientColor=none;swimlaneFillColor=#FFFFFF;" vertex="1" parent="1">
          <mxGeometry x="-440" y="140" width="200" height="140" as="geometry" />
        </mxCell>
        <mxCell id="JJ6pGFsBF1nlRodCM9yX-5" value="&lt;font face=&quot;Comic Sans MS&quot; style=&quot;font-size: 13px;&quot;&gt;&lt;font color=&quot;#0f0f0f&quot; style=&quot;font-size: 13px;&quot;&gt;{&lt;/font&gt;&lt;br style=&quot;font-size: 13px;&quot;&gt;&lt;span style=&quot;white-space: pre; font-size: 13px;&quot;&gt;&lt;span style=&quot;color: rgb(15, 15, 15); white-space: pre; font-size: 13px;&quot;&gt;&#x9;&lt;/span&gt;&lt;font color=&quot;#ff0000&quot; style=&quot;font-size: 13px;&quot;&gt;&quot;&lt;/font&gt;&lt;/span&gt;&lt;font color=&quot;#ff0000&quot; style=&quot;font-size: 13px;&quot;&gt;id_inf_tiempo&quot;&lt;/font&gt;&lt;/font&gt;&lt;font face=&quot;Comic Sans MS&quot; style=&quot;font-size: 13px;&quot;&gt;&lt;font color=&quot;#0f0f0f&quot; style=&quot;font-size: 13px;&quot;&gt; : &lt;/font&gt;&lt;font color=&quot;#009900&quot; style=&quot;font-size: 13px;&quot;&gt;int&lt;/font&gt;&lt;font color=&quot;#0f0f0f&quot; style=&quot;font-size: 13px;&quot;&gt;,&lt;/font&gt;&lt;br style=&quot;font-size: 13px;&quot;&gt;&lt;span style=&quot;color: rgb(15, 15, 15); white-space: pre; font-size: 13px;&quot;&gt;&#x9;&lt;/span&gt;&lt;font color=&quot;#ff0000&quot; style=&quot;font-size: 13px;&quot;&gt;&quot;temperatura&quot;&lt;/font&gt;&lt;/font&gt;&lt;font face=&quot;Comic Sans MS&quot; style=&quot;font-size: 13px;&quot;&gt;&lt;font color=&quot;#0f0f0f&quot; style=&quot;font-size: 13px;&quot;&gt; : &lt;/font&gt;&lt;font color=&quot;#009900&quot; style=&quot;font-size: 13px;&quot;&gt;double&lt;/font&gt;&lt;font color=&quot;#0f0f0f&quot; style=&quot;font-size: 13px;&quot;&gt;,&lt;/font&gt;&lt;br style=&quot;font-size: 13px;&quot;&gt;&lt;span style=&quot;color: rgb(15, 15, 15); white-space: pre; font-size: 13px;&quot;&gt;&#x9;&lt;/span&gt;&lt;font color=&quot;#ff0000&quot; style=&quot;font-size: 13px;&quot;&gt;&quot;elevacion&quot; &lt;/font&gt;&lt;/font&gt;&lt;font face=&quot;Comic Sans MS&quot; style=&quot;font-size: 13px;&quot;&gt;&lt;font color=&quot;#0f0f0f&quot; style=&quot;font-size: 13px;&quot;&gt;: &lt;/font&gt;&lt;font color=&quot;#009900&quot; style=&quot;font-size: 13px;&quot;&gt;double&lt;/font&gt;&lt;font color=&quot;#0f0f0f&quot; style=&quot;font-size: 13px;&quot;&gt;,&lt;/font&gt;&lt;br style=&quot;font-size: 13px;&quot;&gt;&lt;span style=&quot;color: rgb(15, 15, 15); white-space: pre; font-size: 13px;&quot;&gt;&#x9;&lt;/span&gt;&lt;font color=&quot;#ff0000&quot; style=&quot;font-size: 13px;&quot;&gt;&quot;clima&quot;&lt;/font&gt;&lt;/font&gt;&lt;font face=&quot;Comic Sans MS&quot; style=&quot;font-size: 13px;&quot;&gt;&lt;font color=&quot;#0f0f0f&quot; style=&quot;font-size: 13px;&quot;&gt; : &lt;/font&gt;&lt;font color=&quot;#009900&quot; style=&quot;font-size: 13px;&quot;&gt;&quot;String&quot;&lt;/font&gt;&lt;/font&gt;&lt;font face=&quot;Comic Sans MS&quot; style=&quot;font-size: 13px;&quot;&gt;&lt;span style=&quot;white-space: pre; font-size: 13px;&quot;&gt;&lt;font color=&quot;#009900&quot; style=&quot;font-size: 13px;&quot;&gt;&#x9;&lt;/font&gt;&lt;/span&gt;&lt;br style=&quot;font-size: 13px;&quot;&gt;&lt;font color=&quot;#0f0f0f&quot; style=&quot;font-size: 13px;&quot;&gt;}&lt;/font&gt;&lt;/font&gt;" style="align=left;strokeColor=none;fillColor=none;spacingLeft=4;fontSize=13;verticalAlign=top;resizable=0;rotatable=0;part=1;html=1;" vertex="1" parent="JJ6pGFsBF1nlRodCM9yX-4">
          <mxGeometry y="30" width="200" height="110" as="geometry" />
        </mxCell>
        <mxCell id="JJ6pGFsBF1nlRodCM9yX-8" value="" style="endArrow=classic;html=1;rounded=0;elbow=vertical;edgeStyle=orthogonalEdgeStyle;curved=1;startArrow=classic;startFill=0;strokeColor=#FFFFFF;fillColor=#cdeb8b;shadow=0;strokeWidth=2;entryX=0.011;entryY=0.306;entryDx=0;entryDy=0;entryPerimeter=0;" edge="1" parent="1" target="JJ6pGFsBF1nlRodCM9yX-5">
          <mxGeometry width="50" height="50" relative="1" as="geometry">
            <mxPoint x="-520" y="280" as="sourcePoint" />
            <mxPoint x="-450" y="90" as="targetPoint" />
          </mxGeometry>
        </mxCell>
        <mxCell id="JJ6pGFsBF1nlRodCM9yX-9" value="&lt;font face=&quot;Comic Sans MS&quot;&gt;&lt;b&gt;Estacion&lt;/b&gt;&lt;/font&gt;" style="swimlane;childLayout=stackLayout;horizontal=1;startSize=30;horizontalStack=0;rounded=1;fontSize=13;fontStyle=0;strokeWidth=2;resizeParent=0;resizeLast=1;shadow=0;dashed=0;align=center;arcSize=4;whiteSpace=wrap;html=1;labelBackgroundColor=none;fillColor=#F2F200;fontColor=#0F0F0F;strokeColor=#0F0F0F;swimlaneLine=1;gradientColor=none;swimlaneFillColor=#FFFFFF;" vertex="1" parent="1">
          <mxGeometry x="-450" y="310" width="220" height="190" as="geometry" />
        </mxCell>
        <mxCell id="JJ6pGFsBF1nlRodCM9yX-10" value="&lt;font face=&quot;Comic Sans MS&quot; style=&quot;font-size: 13px;&quot;&gt;&lt;font color=&quot;#0f0f0f&quot; style=&quot;font-size: 13px;&quot;&gt;{&lt;/font&gt;&lt;br style=&quot;font-size: 13px;&quot;&gt;&lt;span style=&quot;font-size: 13px;&quot;&gt;&lt;span style=&quot;color: rgb(15, 15, 15); font-size: 13px;&quot;&gt;&lt;span style=&quot;white-space: pre;&quot;&gt;&amp;nbsp;&amp;nbsp;&amp;nbsp;&amp;nbsp;&lt;/span&gt;&lt;/span&gt;&lt;font color=&quot;#ff0000&quot; style=&quot;font-size: 13px;&quot;&gt;&quot;&lt;/font&gt;&lt;/span&gt;&lt;font color=&quot;#ff0000&quot; style=&quot;font-size: 13px;&quot;&gt;id_estacion&quot;&lt;/font&gt;&lt;/font&gt;&lt;font face=&quot;Comic Sans MS&quot; style=&quot;font-size: 13px;&quot;&gt;&lt;font color=&quot;#0f0f0f&quot; style=&quot;font-size: 13px;&quot;&gt; : &lt;/font&gt;&lt;font color=&quot;#009900&quot; style=&quot;font-size: 13px;&quot;&gt;int&lt;/font&gt;&lt;font color=&quot;#0f0f0f&quot; style=&quot;font-size: 13px;&quot;&gt;,&lt;/font&gt;&lt;br style=&quot;font-size: 13px;&quot;&gt;&lt;span style=&quot;color: rgb(15, 15, 15); font-size: 13px;&quot;&gt;&lt;span style=&quot;white-space: pre;&quot;&gt;&amp;nbsp;&amp;nbsp;&amp;nbsp;&amp;nbsp;&lt;/span&gt;&lt;/span&gt;&lt;font color=&quot;#ff0000&quot; style=&quot;font-size: 13px;&quot;&gt;&quot;nombre_estacion&quot;&lt;/font&gt;&lt;/font&gt;&lt;font face=&quot;Comic Sans MS&quot; style=&quot;font-size: 13px;&quot;&gt;&lt;font color=&quot;#0f0f0f&quot; style=&quot;font-size: 13px;&quot;&gt; : &lt;/font&gt;&lt;font color=&quot;#009900&quot; style=&quot;font-size: 13px;&quot;&gt;&quot;String&quot;&lt;/font&gt;&lt;font color=&quot;#0f0f0f&quot; style=&quot;font-size: 13px;&quot;&gt;,&lt;/font&gt;&lt;br style=&quot;font-size: 13px;&quot;&gt;&lt;span style=&quot;color: rgb(15, 15, 15); font-size: 13px;&quot;&gt;&lt;span style=&quot;white-space: pre;&quot;&gt;&amp;nbsp;&amp;nbsp;&amp;nbsp;&amp;nbsp;&lt;/span&gt;&lt;/span&gt;&lt;font color=&quot;#ff0000&quot; style=&quot;font-size: 13px;&quot;&gt;&quot;ubicacion&quot; &lt;/font&gt;&lt;/font&gt;&lt;font face=&quot;Comic Sans MS&quot; style=&quot;font-size: 13px;&quot;&gt;&lt;font color=&quot;#0f0f0f&quot; style=&quot;font-size: 13px;&quot;&gt;: &lt;/font&gt;&lt;font color=&quot;#009900&quot; style=&quot;font-size: 13px;&quot;&gt;&quot;String&quot;&lt;/font&gt;&lt;font color=&quot;#0f0f0f&quot; style=&quot;font-size: 13px;&quot;&gt;,&lt;/font&gt;&lt;br style=&quot;font-size: 13px;&quot;&gt;&lt;span style=&quot;color: rgb(15, 15, 15); font-size: 13px;&quot;&gt;&lt;span style=&quot;white-space: pre;&quot;&gt;&amp;nbsp;&amp;nbsp;&amp;nbsp;&amp;nbsp;&lt;/span&gt;&lt;/span&gt;&lt;font color=&quot;#ff0000&quot; style=&quot;font-size: 13px;&quot;&gt;&quot;estacion_alcance&quot;&lt;/font&gt;&lt;/font&gt;&lt;font face=&quot;Comic Sans MS&quot; style=&quot;font-size: 13px;&quot;&gt;&lt;font color=&quot;#0f0f0f&quot; style=&quot;font-size: 13px;&quot;&gt; : &lt;/font&gt;&lt;font color=&quot;#009900&quot; style=&quot;font-size: 13px;&quot;&gt;double,&lt;br&gt;&lt;/font&gt;&lt;/font&gt;&lt;font face=&quot;Comic Sans MS&quot;&gt;&lt;font color=&quot;#ff0000&quot;&gt;&amp;nbsp; &amp;nbsp; &quot;trabajadores&quot;&lt;/font&gt;&lt;/font&gt;&lt;font face=&quot;Comic Sans MS&quot;&gt;&lt;font color=&quot;#0f0f0f&quot;&gt;&amp;nbsp;:&amp;nbsp;&lt;/font&gt;&lt;font color=&quot;#009900&quot;&gt;array&lt;/font&gt;&lt;font color=&quot;#0f0f0f&quot;&gt;,&lt;/font&gt;&lt;br&gt;&lt;span style=&quot;white-space: pre;&quot;&gt;&amp;nbsp;&amp;nbsp;&amp;nbsp;&amp;nbsp;&lt;/span&gt;&lt;font color=&quot;#ff0000&quot;&gt;&quot;equipo_monitoreo&quot;&amp;nbsp;&lt;/font&gt;&lt;/font&gt;&lt;font face=&quot;Comic Sans MS&quot;&gt;&lt;font color=&quot;#0f0f0f&quot;&gt;: &lt;/font&gt;&lt;font color=&quot;#009900&quot;&gt;{}&lt;/font&gt;&lt;font color=&quot;#0f0f0f&quot;&gt;,&lt;/font&gt;&lt;br&gt;&lt;span style=&quot;color: rgb(15, 15, 15);&quot;&gt;&lt;span style=&quot;white-space: pre;&quot;&gt;&amp;nbsp;&amp;nbsp;&amp;nbsp;&amp;nbsp;&lt;/span&gt;&lt;/span&gt;&lt;font color=&quot;#ff0000&quot;&gt;&quot;medicion_inf&quot;&lt;/font&gt;&lt;/font&gt;&lt;font face=&quot;Comic Sans MS&quot;&gt;&lt;font color=&quot;#0f0f0f&quot;&gt;&amp;nbsp;:&amp;nbsp;&lt;/font&gt;&lt;font color=&quot;#009900&quot;&gt;{},&lt;/font&gt;&lt;/font&gt;&lt;font face=&quot;Comic Sans MS&quot; style=&quot;font-size: 13px;&quot;&gt;&lt;span style=&quot;font-size: 13px;&quot;&gt;&lt;font color=&quot;#009900&quot; style=&quot;font-size: 13px;&quot;&gt;&lt;span style=&quot;white-space: pre;&quot;&gt;&amp;nbsp;&lt;/span&gt;&lt;/font&gt;&lt;/span&gt;&lt;br style=&quot;font-size: 13px;&quot;&gt;&lt;font color=&quot;#0f0f0f&quot; style=&quot;font-size: 13px;&quot;&gt;}&lt;/font&gt;&lt;/font&gt;" style="align=left;strokeColor=none;fillColor=none;spacingLeft=4;fontSize=13;verticalAlign=top;resizable=0;rotatable=0;part=1;html=1;" vertex="1" parent="JJ6pGFsBF1nlRodCM9yX-9">
          <mxGeometry y="30" width="220" height="160" as="geometry" />
        </mxCell>
        <mxCell id="JJ6pGFsBF1nlRodCM9yX-11" value="" style="endArrow=classic;html=1;rounded=0;elbow=vertical;edgeStyle=orthogonalEdgeStyle;curved=1;startArrow=classic;startFill=0;strokeColor=#FFFFFF;fillColor=#cdeb8b;shadow=0;strokeWidth=2;exitX=1.005;exitY=0.827;exitDx=0;exitDy=0;exitPerimeter=0;entryX=0.006;entryY=0.215;entryDx=0;entryDy=0;entryPerimeter=0;" edge="1" parent="1" source="JJ6pGFsBF1nlRodCM9yX-2" target="JJ6pGFsBF1nlRodCM9yX-10">
          <mxGeometry width="50" height="50" relative="1" as="geometry">
            <mxPoint x="-510" y="250" as="sourcePoint" />
            <mxPoint x="-440" y="110" as="targetPoint" />
          </mxGeometry>
        </mxCell>
        <mxCell id="JJ6pGFsBF1nlRodCM9yX-12" value="&lt;font face=&quot;Comic Sans MS&quot;&gt;&lt;b&gt;Trabajadores&lt;/b&gt;&lt;/font&gt;" style="swimlane;childLayout=stackLayout;horizontal=1;startSize=30;horizontalStack=0;rounded=1;fontSize=13;fontStyle=0;strokeWidth=2;resizeParent=0;resizeLast=1;shadow=0;dashed=0;align=center;arcSize=4;whiteSpace=wrap;html=1;labelBackgroundColor=none;fillColor=#F2F200;fontColor=#0F0F0F;strokeColor=#0F0F0F;swimlaneLine=1;gradientColor=none;swimlaneFillColor=#FFFFFF;" vertex="1" parent="1">
          <mxGeometry x="-180" y="50" width="211" height="260" as="geometry" />
        </mxCell>
        <mxCell id="JJ6pGFsBF1nlRodCM9yX-13" value="&lt;font face=&quot;Comic Sans MS&quot; style=&quot;font-size: 13px;&quot;&gt;&lt;font color=&quot;#0f0f0f&quot; style=&quot;font-size: 13px;&quot;&gt;{&lt;/font&gt;&lt;br style=&quot;font-size: 13px;&quot;&gt;&lt;span style=&quot;font-size: 13px;&quot;&gt;&lt;span style=&quot;color: rgb(15, 15, 15); font-size: 13px;&quot;&gt;&lt;span style=&quot;white-space: pre;&quot;&gt;&amp;nbsp;&amp;nbsp;&amp;nbsp;&amp;nbsp;&lt;span style=&quot;white-space: pre;&quot;&gt;&#x9;&lt;/span&gt;&lt;/span&gt;&lt;/span&gt;&lt;font color=&quot;#ff0000&quot; style=&quot;font-size: 13px;&quot;&gt;&quot;id_trabajador&lt;/font&gt;&lt;/span&gt;&lt;font color=&quot;#ff0000&quot; style=&quot;font-size: 13px;&quot;&gt;&quot;&lt;/font&gt;&lt;/font&gt;&lt;font face=&quot;Comic Sans MS&quot; style=&quot;font-size: 13px;&quot;&gt;&lt;font color=&quot;#0f0f0f&quot; style=&quot;font-size: 13px;&quot;&gt; : &lt;/font&gt;&lt;font color=&quot;#009900&quot; style=&quot;font-size: 13px;&quot;&gt;int&lt;/font&gt;&lt;font color=&quot;#0f0f0f&quot; style=&quot;font-size: 13px;&quot;&gt;,&lt;/font&gt;&lt;br style=&quot;font-size: 13px;&quot;&gt;&lt;span style=&quot;color: rgb(15, 15, 15); font-size: 13px;&quot;&gt;&lt;span style=&quot;white-space: pre;&quot;&gt;&amp;nbsp;&amp;nbsp;&amp;nbsp;&amp;nbsp;&lt;span style=&quot;white-space: pre;&quot;&gt;&#x9;&lt;/span&gt;&lt;/span&gt;&lt;/span&gt;&lt;font color=&quot;#ff0000&quot; style=&quot;font-size: 13px;&quot;&gt;&quot;nombre&quot;&lt;/font&gt;&lt;/font&gt;&lt;font face=&quot;Comic Sans MS&quot; style=&quot;font-size: 13px;&quot;&gt;&lt;font color=&quot;#0f0f0f&quot; style=&quot;font-size: 13px;&quot;&gt; : &lt;/font&gt;&lt;font color=&quot;#009900&quot; style=&quot;font-size: 13px;&quot;&gt;&quot;String&quot;&lt;/font&gt;&lt;font color=&quot;#0f0f0f&quot; style=&quot;font-size: 13px;&quot;&gt;,&lt;/font&gt;&lt;br style=&quot;font-size: 13px;&quot;&gt;&lt;span style=&quot;color: rgb(15, 15, 15); font-size: 13px;&quot;&gt;&lt;span style=&quot;white-space: pre;&quot;&gt;&amp;nbsp;&amp;nbsp;&amp;nbsp;&amp;nbsp;&lt;span style=&quot;white-space: pre;&quot;&gt;&#x9;&lt;/span&gt;&lt;/span&gt;&lt;/span&gt;&lt;font color=&quot;#ff0000&quot; style=&quot;font-size: 13px;&quot;&gt;&quot;ap_p&quot; &lt;/font&gt;&lt;/font&gt;&lt;font face=&quot;Comic Sans MS&quot; style=&quot;font-size: 13px;&quot;&gt;&lt;font color=&quot;#0f0f0f&quot; style=&quot;font-size: 13px;&quot;&gt;: &lt;/font&gt;&lt;font color=&quot;#009900&quot; style=&quot;font-size: 13px;&quot;&gt;double&lt;/font&gt;&lt;font color=&quot;#0f0f0f&quot; style=&quot;font-size: 13px;&quot;&gt;,&lt;/font&gt;&lt;br style=&quot;font-size: 13px;&quot;&gt;&lt;span style=&quot;color: rgb(15, 15, 15); font-size: 13px;&quot;&gt;&lt;span style=&quot;white-space: pre;&quot;&gt;&amp;nbsp;&amp;nbsp;&amp;nbsp;&amp;nbsp;&lt;span style=&quot;white-space: pre;&quot;&gt;&#x9;&lt;/span&gt;&lt;/span&gt;&lt;/span&gt;&lt;font color=&quot;#ff0000&quot; style=&quot;font-size: 13px;&quot;&gt;&quot;ap_m&quot;&lt;/font&gt;&lt;/font&gt;&lt;font face=&quot;Comic Sans MS&quot; style=&quot;font-size: 13px;&quot;&gt;&lt;font color=&quot;#0f0f0f&quot; style=&quot;font-size: 13px;&quot;&gt; : &lt;/font&gt;&lt;font color=&quot;#009900&quot; style=&quot;font-size: 13px;&quot;&gt;&quot;String&quot;&lt;/font&gt;&lt;font color=&quot;#0f0f0f&quot; style=&quot;font-size: 13px;&quot;&gt;,&lt;/font&gt;&lt;br style=&quot;font-size: 13px;&quot;&gt;&lt;span style=&quot;color: rgb(15, 15, 15); font-size: 13px;&quot;&gt;&lt;span style=&quot;white-space: pre;&quot;&gt;&amp;nbsp;&amp;nbsp;&amp;nbsp;&amp;nbsp;&lt;span style=&quot;white-space: pre;&quot;&gt;&#x9;&lt;/span&gt;&lt;/span&gt;&lt;/span&gt;&lt;font color=&quot;#ff0000&quot; style=&quot;font-size: 13px;&quot;&gt;&quot;edad&quot;&lt;/font&gt;&lt;/font&gt;&lt;font face=&quot;Comic Sans MS&quot; style=&quot;font-size: 13px;&quot;&gt;&lt;font color=&quot;#0f0f0f&quot; style=&quot;font-size: 13px;&quot;&gt; : &lt;/font&gt;&lt;font color=&quot;#009900&quot; style=&quot;font-size: 13px;&quot;&gt;int&lt;/font&gt;&lt;font color=&quot;#0f0f0f&quot; style=&quot;font-size: 13px;&quot;&gt;,&lt;/font&gt;&lt;br style=&quot;font-size: 13px;&quot;&gt;&lt;font color=&quot;#ff0000&quot; style=&quot;font-size: 13px;&quot;&gt;&amp;nbsp; &amp;nbsp; &lt;span style=&quot;white-space: pre;&quot;&gt;&#x9;&lt;/span&gt;&quot;address&quot;&lt;/font&gt;&lt;font color=&quot;#0f0f0f&quot; style=&quot;font-size: 13px;&quot;&gt; : &lt;/font&gt;&lt;font color=&quot;#009900&quot; style=&quot;font-size: 13px;&quot;&gt;&quot;String&quot;&lt;/font&gt;&lt;font color=&quot;#0f0f0f&quot; style=&quot;font-size: 13px;&quot;&gt;,&lt;br style=&quot;font-size: 13px;&quot;&gt;&lt;/font&gt;&lt;font color=&quot;#ff0000&quot; style=&quot;font-size: 13px;&quot;&gt;&amp;nbsp; &amp;nbsp; &lt;span style=&quot;white-space: pre;&quot;&gt;&#x9;&lt;/span&gt;&quot;telefono&quot;&lt;/font&gt;&lt;font color=&quot;#0f0f0f&quot; style=&quot;font-size: 13px;&quot;&gt; : &lt;/font&gt;&lt;font color=&quot;#009900&quot; style=&quot;font-size: 13px;&quot;&gt;&quot;String&quot;&lt;/font&gt;&lt;font color=&quot;#0f0f0f&quot; style=&quot;font-size: 13px;&quot;&gt;,&lt;br style=&quot;font-size: 13px;&quot;&gt;&lt;/font&gt;&lt;font color=&quot;#ff0000&quot; style=&quot;font-size: 13px;&quot;&gt;&amp;nbsp; &amp;nbsp; &lt;span style=&quot;white-space: pre;&quot;&gt;&#x9;&lt;/span&gt;&quot;rol&quot;&lt;/font&gt;&lt;font color=&quot;#0f0f0f&quot; style=&quot;font-size: 13px;&quot;&gt; : &lt;/font&gt;&lt;font style=&quot;font-size: 13px;&quot;&gt;&lt;font color=&quot;#009900&quot;&gt;&quot;String&quot;,&lt;/font&gt;&lt;font color=&quot;#0f0f0f&quot;&gt;&lt;span style=&quot;white-space-collapse: preserve;&quot;&gt;&lt;br&gt;&lt;/span&gt;&lt;/font&gt;&lt;/font&gt;&lt;/font&gt;&lt;font style=&quot;border-color: var(--border-color); font-family: &amp;quot;Comic Sans MS&amp;quot;;&quot; color=&quot;#ff0000&quot;&gt;&amp;nbsp; &amp;nbsp; &lt;span style=&quot;white-space: pre;&quot;&gt;&#x9;&lt;/span&gt;&quot;email&quot;&lt;/font&gt;&lt;font style=&quot;border-color: var(--border-color); font-family: &amp;quot;Comic Sans MS&amp;quot;;&quot; color=&quot;#0f0f0f&quot;&gt; : &lt;/font&gt;&lt;font style=&quot;border-color: var(--border-color); font-family: &amp;quot;Comic Sans MS&amp;quot;;&quot; color=&quot;#009900&quot;&gt;&quot;String&quot;&lt;/font&gt;&lt;font style=&quot;border-color: var(--border-color); font-family: &amp;quot;Comic Sans MS&amp;quot;;&quot; color=&quot;#0f0f0f&quot;&gt;,&lt;br style=&quot;border-color: var(--border-color);&quot;&gt;&lt;/font&gt;&lt;span style=&quot;border-color: var(--border-color); font-family: &amp;quot;Comic Sans MS&amp;quot;; color: rgb(15, 15, 15);&quot;&gt;&lt;span style=&quot;white-space: pre;&quot;&gt;&amp;nbsp;&amp;nbsp;&amp;nbsp;&amp;nbsp;&lt;span style=&quot;white-space: pre;&quot;&gt;&#x9;&lt;/span&gt;&lt;/span&gt;&lt;/span&gt;&lt;font style=&quot;border-color: var(--border-color); font-family: &amp;quot;Comic Sans MS&amp;quot;;&quot; color=&quot;#ff0000&quot;&gt;&quot;horario_turno&quot;&lt;/font&gt;&lt;font style=&quot;border-color: var(--border-color); font-family: &amp;quot;Comic Sans MS&amp;quot;;&quot; color=&quot;#0f0f0f&quot;&gt; : &lt;/font&gt;&lt;font style=&quot;border-color: var(--border-color); font-family: &amp;quot;Comic Sans MS&amp;quot;;&quot; color=&quot;#009900&quot;&gt;&quot;String&quot;&lt;/font&gt;&lt;font style=&quot;border-color: var(--border-color); font-family: &amp;quot;Comic Sans MS&amp;quot;;&quot; color=&quot;#0f0f0f&quot;&gt;,&lt;br style=&quot;border-color: var(--border-color);&quot;&gt;&lt;/font&gt;&lt;span style=&quot;border-color: var(--border-color); font-family: &amp;quot;Comic Sans MS&amp;quot;; color: rgb(15, 15, 15);&quot;&gt;&lt;span style=&quot;white-space: pre;&quot;&gt;&amp;nbsp;&amp;nbsp;&amp;nbsp;&amp;nbsp;&lt;span style=&quot;white-space: pre;&quot;&gt;&#x9;&lt;/span&gt;&lt;/span&gt;&lt;/span&gt;&lt;font style=&quot;border-color: var(--border-color); font-family: &amp;quot;Comic Sans MS&amp;quot;;&quot; color=&quot;#ff0000&quot;&gt;&quot;active&quot;&lt;/font&gt;&lt;font style=&quot;border-color: var(--border-color); font-family: &amp;quot;Comic Sans MS&amp;quot;;&quot; color=&quot;#0f0f0f&quot;&gt; : &lt;/font&gt;&lt;font style=&quot;border-color: var(--border-color); font-family: &amp;quot;Comic Sans MS&amp;quot;;&quot; color=&quot;#009900&quot;&gt;Boolean,&lt;/font&gt;&lt;font face=&quot;Comic Sans MS&quot; style=&quot;font-size: 13px;&quot;&gt;&lt;span style=&quot;font-size: 13px;&quot;&gt;&lt;font color=&quot;#009900&quot; style=&quot;font-size: 13px;&quot;&gt;&lt;br&gt;&lt;span style=&quot;white-space: pre;&quot;&gt;&amp;nbsp;&amp;nbsp;&amp;nbsp;&amp;nbsp;&lt;/span&gt;&lt;/font&gt;&lt;/span&gt;&lt;br style=&quot;font-size: 13px;&quot;&gt;&lt;font color=&quot;#0f0f0f&quot; style=&quot;font-size: 13px;&quot;&gt;}&lt;/font&gt;&lt;/font&gt;" style="align=left;strokeColor=none;fillColor=none;spacingLeft=4;fontSize=13;verticalAlign=top;resizable=0;rotatable=0;part=1;html=1;" vertex="1" parent="JJ6pGFsBF1nlRodCM9yX-12">
          <mxGeometry y="30" width="211" height="230" as="geometry" />
        </mxCell>
        <mxCell id="JJ6pGFsBF1nlRodCM9yX-14" value="&lt;font face=&quot;Comic Sans MS&quot;&gt;&lt;b&gt;Equipo_Monitoreo&lt;/b&gt;&lt;/font&gt;" style="swimlane;childLayout=stackLayout;horizontal=1;startSize=30;horizontalStack=0;rounded=1;fontSize=13;fontStyle=0;strokeWidth=2;resizeParent=0;resizeLast=1;shadow=0;dashed=0;align=center;arcSize=4;whiteSpace=wrap;html=1;labelBackgroundColor=none;fillColor=#F2F200;fontColor=#0F0F0F;strokeColor=#0F0F0F;swimlaneLine=1;gradientColor=none;swimlaneFillColor=#FFFFFF;" vertex="1" parent="1">
          <mxGeometry x="-180" y="340" width="291" height="220" as="geometry" />
        </mxCell>
        <mxCell id="JJ6pGFsBF1nlRodCM9yX-20" value="" style="endArrow=classic;html=1;rounded=0;elbow=vertical;edgeStyle=orthogonalEdgeStyle;curved=1;startArrow=classic;startFill=0;strokeColor=#FFFFFF;fillColor=#cdeb8b;shadow=0;strokeWidth=2;exitX=1.005;exitY=0.827;exitDx=0;exitDy=0;exitPerimeter=0;entryX=0.003;entryY=0.148;entryDx=0;entryDy=0;entryPerimeter=0;" edge="1" parent="JJ6pGFsBF1nlRodCM9yX-14" target="JJ6pGFsBF1nlRodCM9yX-13">
          <mxGeometry width="50" height="50" relative="1" as="geometry">
            <mxPoint x="-50" y="89.48000000000002" as="sourcePoint" />
            <mxPoint x="-20" y="-110" as="targetPoint" />
          </mxGeometry>
        </mxCell>
        <mxCell id="JJ6pGFsBF1nlRodCM9yX-15" value="&lt;font face=&quot;Comic Sans MS&quot; style=&quot;font-size: 13px;&quot;&gt;&lt;font color=&quot;#0f0f0f&quot; style=&quot;font-size: 13px;&quot;&gt;{&lt;/font&gt;&lt;br style=&quot;font-size: 13px;&quot;&gt;&lt;span style=&quot;font-size: 13px;&quot;&gt;&lt;span style=&quot;color: rgb(15, 15, 15); font-size: 13px;&quot;&gt;&lt;span style=&quot;white-space: pre;&quot;&gt;&amp;nbsp;&amp;nbsp;&amp;nbsp;&amp;nbsp;&lt;span style=&quot;white-space: pre;&quot;&gt;&#x9;&lt;/span&gt;&lt;/span&gt;&lt;/span&gt;&lt;font color=&quot;#ff0000&quot; style=&quot;font-size: 13px;&quot;&gt;&quot;id_equipo&lt;/font&gt;&lt;/span&gt;&lt;font color=&quot;#ff0000&quot; style=&quot;font-size: 13px;&quot;&gt;&quot;&lt;/font&gt;&lt;/font&gt;&lt;font face=&quot;Comic Sans MS&quot; style=&quot;font-size: 13px;&quot;&gt;&lt;font color=&quot;#0f0f0f&quot; style=&quot;font-size: 13px;&quot;&gt; : &lt;/font&gt;&lt;font color=&quot;#009900&quot; style=&quot;font-size: 13px;&quot;&gt;int&lt;/font&gt;&lt;font color=&quot;#0f0f0f&quot; style=&quot;font-size: 13px;&quot;&gt;,&lt;/font&gt;&lt;br style=&quot;font-size: 13px;&quot;&gt;&lt;span style=&quot;color: rgb(15, 15, 15); font-size: 13px;&quot;&gt;&lt;span style=&quot;white-space: pre;&quot;&gt;&amp;nbsp;&amp;nbsp;&amp;nbsp;&amp;nbsp;&lt;span style=&quot;white-space: pre;&quot;&gt;&#x9;&lt;/span&gt;&lt;/span&gt;&lt;/span&gt;&lt;font color=&quot;#ff0000&quot; style=&quot;font-size: 13px;&quot;&gt;&quot;nombre&quot;&lt;/font&gt;&lt;/font&gt;&lt;font face=&quot;Comic Sans MS&quot; style=&quot;font-size: 13px;&quot;&gt;&lt;font color=&quot;#0f0f0f&quot; style=&quot;font-size: 13px;&quot;&gt; : &lt;/font&gt;&lt;font color=&quot;#009900&quot; style=&quot;font-size: 13px;&quot;&gt;&quot;String&quot;&lt;/font&gt;&lt;font color=&quot;#0f0f0f&quot; style=&quot;font-size: 13px;&quot;&gt;,&lt;/font&gt;&lt;br style=&quot;font-size: 13px;&quot;&gt;&lt;span style=&quot;color: rgb(15, 15, 15); font-size: 13px;&quot;&gt;&lt;span style=&quot;white-space: pre;&quot;&gt;&amp;nbsp;&amp;nbsp;&amp;nbsp;&amp;nbsp;&lt;span style=&quot;white-space: pre;&quot;&gt;&#x9;&lt;/span&gt;&lt;/span&gt;&lt;/span&gt;&lt;font color=&quot;#ff0000&quot; style=&quot;font-size: 13px;&quot;&gt;&quot;tipo_equipo&quot; &lt;/font&gt;&lt;/font&gt;&lt;font face=&quot;Comic Sans MS&quot; style=&quot;font-size: 13px;&quot;&gt;&lt;font color=&quot;#0f0f0f&quot; style=&quot;font-size: 13px;&quot;&gt;: &lt;/font&gt;&lt;font color=&quot;#009900&quot; style=&quot;font-size: 13px;&quot;&gt;&quot;String&quot;&lt;/font&gt;&lt;font color=&quot;#0f0f0f&quot; style=&quot;font-size: 13px;&quot;&gt;,&lt;/font&gt;&lt;br style=&quot;font-size: 13px;&quot;&gt;&lt;span style=&quot;color: rgb(15, 15, 15); font-size: 13px;&quot;&gt;&lt;span style=&quot;white-space: pre;&quot;&gt;&amp;nbsp;&amp;nbsp;&amp;nbsp;&amp;nbsp;&lt;span style=&quot;white-space: pre;&quot;&gt;&#x9;&lt;/span&gt;&lt;/span&gt;&lt;/span&gt;&lt;font color=&quot;#ff0000&quot; style=&quot;font-size: 13px;&quot;&gt;&quot;fabricante&quot;&lt;/font&gt;&lt;/font&gt;&lt;font face=&quot;Comic Sans MS&quot; style=&quot;font-size: 13px;&quot;&gt;&lt;font color=&quot;#0f0f0f&quot; style=&quot;font-size: 13px;&quot;&gt; : &lt;/font&gt;&lt;font color=&quot;#009900&quot; style=&quot;font-size: 13px;&quot;&gt;&quot;String&quot;&lt;/font&gt;&lt;font color=&quot;#0f0f0f&quot; style=&quot;font-size: 13px;&quot;&gt;,&lt;/font&gt;&lt;br style=&quot;font-size: 13px;&quot;&gt;&lt;span style=&quot;color: rgb(15, 15, 15); font-size: 13px;&quot;&gt;&lt;span style=&quot;white-space: pre;&quot;&gt;&amp;nbsp;&amp;nbsp;&amp;nbsp;&amp;nbsp;&lt;span style=&quot;white-space: pre;&quot;&gt;&#x9;&lt;/span&gt;&lt;/span&gt;&lt;/span&gt;&lt;font color=&quot;#ff0000&quot; style=&quot;font-size: 13px;&quot;&gt;&quot;modelo&quot;&lt;/font&gt;&lt;/font&gt;&lt;font face=&quot;Comic Sans MS&quot; style=&quot;font-size: 13px;&quot;&gt;&lt;font color=&quot;#0f0f0f&quot; style=&quot;font-size: 13px;&quot;&gt; : &lt;/font&gt;&lt;font color=&quot;#009900&quot; style=&quot;font-size: 13px;&quot;&gt;&quot;String&quot;&lt;/font&gt;&lt;font color=&quot;#0f0f0f&quot; style=&quot;font-size: 13px;&quot;&gt;,&lt;/font&gt;&lt;br style=&quot;font-size: 13px;&quot;&gt;&lt;font color=&quot;#ff0000&quot; style=&quot;font-size: 13px;&quot;&gt;&amp;nbsp; &amp;nbsp; &lt;span style=&quot;white-space: pre;&quot;&gt;&#x9;&lt;/span&gt;&quot;active&quot;&lt;/font&gt;&lt;font color=&quot;#0f0f0f&quot; style=&quot;font-size: 13px;&quot;&gt; : &lt;/font&gt;&lt;font color=&quot;#009900&quot; style=&quot;font-size: 13px;&quot;&gt;Boolean&lt;/font&gt;&lt;font color=&quot;#0f0f0f&quot; style=&quot;font-size: 13px;&quot;&gt;,&lt;br style=&quot;font-size: 13px;&quot;&gt;&lt;/font&gt;&lt;font color=&quot;#ff0000&quot; style=&quot;font-size: 13px;&quot;&gt;&amp;nbsp; &amp;nbsp; &lt;span style=&quot;white-space: pre;&quot;&gt;&#x9;&lt;/span&gt;&quot;telefono&quot;&lt;/font&gt;&lt;font color=&quot;#0f0f0f&quot; style=&quot;font-size: 13px;&quot;&gt; : &lt;/font&gt;&lt;font color=&quot;#009900&quot; style=&quot;font-size: 13px;&quot;&gt;&quot;String&quot;&lt;/font&gt;&lt;font color=&quot;#0f0f0f&quot; style=&quot;font-size: 13px;&quot;&gt;,&lt;br style=&quot;font-size: 13px;&quot;&gt;&lt;/font&gt;&lt;font color=&quot;#ff0000&quot; style=&quot;font-size: 13px;&quot;&gt;&amp;nbsp; &amp;nbsp; &lt;span style=&quot;white-space: pre;&quot;&gt;&#x9;&lt;/span&gt;&quot;f_instalacion&quot;&lt;/font&gt;&lt;font color=&quot;#0f0f0f&quot; style=&quot;font-size: 13px;&quot;&gt; : &lt;/font&gt;&lt;font color=&quot;#009900&quot; style=&quot;font-size: 13px;&quot;&gt;new Date(&quot;DD-MM-YY&quot;),&lt;/font&gt;&lt;font style=&quot;font-size: 13px;&quot;&gt;&lt;font color=&quot;#0f0f0f&quot;&gt;&lt;span style=&quot;white-space-collapse: preserve;&quot;&gt;&lt;br&gt;&lt;/span&gt;&lt;/font&gt;&lt;/font&gt;&lt;/font&gt;&lt;font style=&quot;border-color: var(--border-color); font-family: &amp;quot;Comic Sans MS&amp;quot;;&quot; color=&quot;#ff0000&quot;&gt;&amp;nbsp; &amp;nbsp; &lt;span style=&quot;white-space: pre;&quot;&gt;&#x9;&lt;/span&gt;&quot;f_revision&quot;&lt;/font&gt;&lt;font style=&quot;border-color: var(--border-color); font-family: &amp;quot;Comic Sans MS&amp;quot;;&quot; color=&quot;#0f0f0f&quot;&gt; : &lt;/font&gt;&lt;font style=&quot;border-color: var(--border-color); font-family: &amp;quot;Comic Sans MS&amp;quot;;&quot; color=&quot;#009900&quot;&gt;new Date(&quot;DD-MM-YY&quot;)&lt;br&gt;&lt;/font&gt;&lt;font face=&quot;Comic Sans MS&quot; style=&quot;font-size: 13px;&quot;&gt;&lt;font color=&quot;#0f0f0f&quot; style=&quot;font-size: 13px;&quot;&gt;}&lt;/font&gt;&lt;/font&gt;" style="align=left;strokeColor=none;fillColor=none;spacingLeft=4;fontSize=13;verticalAlign=top;resizable=0;rotatable=0;part=1;html=1;" vertex="1" parent="JJ6pGFsBF1nlRodCM9yX-14">
          <mxGeometry y="30" width="291" height="190" as="geometry" />
        </mxCell>
        <mxCell id="JJ6pGFsBF1nlRodCM9yX-16" value="&lt;font face=&quot;Comic Sans MS&quot;&gt;&lt;b&gt;Medicion_inf&lt;/b&gt;&lt;/font&gt;" style="swimlane;childLayout=stackLayout;horizontal=1;startSize=30;horizontalStack=0;rounded=1;fontSize=13;fontStyle=0;strokeWidth=2;resizeParent=0;resizeLast=1;shadow=0;dashed=0;align=center;arcSize=4;whiteSpace=wrap;html=1;labelBackgroundColor=none;fillColor=#F2F200;fontColor=#0F0F0F;strokeColor=#0F0F0F;swimlaneLine=1;gradientColor=none;swimlaneFillColor=#FFFFFF;" vertex="1" parent="1">
          <mxGeometry x="-180" y="585" width="249" height="125" as="geometry" />
        </mxCell>
        <mxCell id="JJ6pGFsBF1nlRodCM9yX-17" value="&lt;font face=&quot;Comic Sans MS&quot; style=&quot;font-size: 13px;&quot;&gt;&lt;font color=&quot;#0f0f0f&quot; style=&quot;font-size: 13px;&quot;&gt;{&lt;/font&gt;&lt;br style=&quot;font-size: 13px;&quot;&gt;&lt;span style=&quot;font-size: 13px;&quot;&gt;&lt;span style=&quot;color: rgb(15, 15, 15); font-size: 13px;&quot;&gt;&lt;span style=&quot;white-space: pre;&quot;&gt;&amp;nbsp;&amp;nbsp;&amp;nbsp;&amp;nbsp;&lt;span style=&quot;white-space: pre;&quot;&gt;&#x9;&lt;/span&gt;&lt;/span&gt;&lt;/span&gt;&lt;font color=&quot;#ff0000&quot; style=&quot;font-size: 13px;&quot;&gt;&quot;id_medicion&lt;/font&gt;&lt;/span&gt;&lt;font color=&quot;#ff0000&quot; style=&quot;font-size: 13px;&quot;&gt;&quot;&lt;/font&gt;&lt;/font&gt;&lt;font face=&quot;Comic Sans MS&quot; style=&quot;font-size: 13px;&quot;&gt;&lt;font color=&quot;#0f0f0f&quot; style=&quot;font-size: 13px;&quot;&gt; : &lt;/font&gt;&lt;font color=&quot;#009900&quot; style=&quot;font-size: 13px;&quot;&gt;int&lt;/font&gt;&lt;font color=&quot;#0f0f0f&quot; style=&quot;font-size: 13px;&quot;&gt;,&lt;br&gt;&lt;/font&gt;&lt;/font&gt;&lt;font style=&quot;border-color: var(--border-color);&quot; face=&quot;Comic Sans MS&quot;&gt;&lt;font style=&quot;border-color: var(--border-color);&quot; color=&quot;#ff0000&quot;&gt;&lt;span style=&quot;white-space: pre;&quot;&gt;&#x9;&lt;/span&gt;&quot;fecha&lt;/font&gt;&lt;font style=&quot;border-color: var(--border-color);&quot; color=&quot;#ff0000&quot;&gt;&quot;&lt;/font&gt;&lt;/font&gt;&lt;font style=&quot;border-color: var(--border-color);&quot; face=&quot;Comic Sans MS&quot;&gt;&lt;font style=&quot;border-color: var(--border-color);&quot; color=&quot;#0f0f0f&quot;&gt;&amp;nbsp;:&amp;nbsp;&lt;/font&gt;&lt;font style=&quot;border-color: var(--border-color);&quot; color=&quot;#009900&quot;&gt;new Date(&quot;DD-MM-YY&quot;)&lt;/font&gt;&lt;font style=&quot;border-color: var(--border-color);&quot; color=&quot;#0f0f0f&quot;&gt;,&lt;/font&gt;&lt;br style=&quot;border-color: var(--border-color);&quot;&gt;&lt;/font&gt;&lt;font face=&quot;Comic Sans MS&quot; style=&quot;font-size: 13px;&quot;&gt;&lt;span style=&quot;color: rgb(15, 15, 15); font-size: 13px;&quot;&gt;&lt;span style=&quot;white-space: pre;&quot;&gt;&amp;nbsp;&amp;nbsp;&amp;nbsp;&amp;nbsp;&lt;span style=&quot;white-space: pre;&quot;&gt;&#x9;&lt;/span&gt;&lt;/span&gt;&lt;/span&gt;&lt;font color=&quot;#ff0000&quot; style=&quot;font-size: 13px;&quot;&gt;&quot;contaminacion&quot;&lt;/font&gt;&lt;/font&gt;&lt;font face=&quot;Comic Sans MS&quot; style=&quot;font-size: 13px;&quot;&gt;&lt;font color=&quot;#0f0f0f&quot; style=&quot;font-size: 13px;&quot;&gt; : &lt;/font&gt;&lt;font color=&quot;#009900&quot; style=&quot;font-size: 13px;&quot;&gt;Array&lt;/font&gt;&lt;/font&gt;&lt;font face=&quot;Comic Sans MS&quot; style=&quot;font-size: 13px;&quot;&gt;&lt;br style=&quot;font-size: 13px;&quot;&gt;&lt;font color=&quot;#0f0f0f&quot; style=&quot;font-size: 13px;&quot;&gt;}&lt;/font&gt;&lt;/font&gt;" style="align=left;strokeColor=none;fillColor=none;spacingLeft=4;fontSize=13;verticalAlign=top;resizable=0;rotatable=0;part=1;html=1;" vertex="1" parent="JJ6pGFsBF1nlRodCM9yX-16">
          <mxGeometry y="30" width="249" height="95" as="geometry" />
        </mxCell>
        <mxCell id="JJ6pGFsBF1nlRodCM9yX-21" value="" style="endArrow=classic;html=1;rounded=0;elbow=vertical;edgeStyle=orthogonalEdgeStyle;curved=1;startArrow=classic;startFill=0;strokeColor=default;fillColor=#cdeb8b;shadow=0;strokeWidth=2;exitX=1.005;exitY=0.827;exitDx=0;exitDy=0;exitPerimeter=0;entryX=0.009;entryY=0.167;entryDx=0;entryDy=0;entryPerimeter=0;" edge="1" parent="1" target="JJ6pGFsBF1nlRodCM9yX-15">
          <mxGeometry width="50" height="50" relative="1" as="geometry">
            <mxPoint x="-230" y="447" as="sourcePoint" />
            <mxPoint x="-160" y="420" as="targetPoint" />
          </mxGeometry>
        </mxCell>
        <mxCell id="JJ6pGFsBF1nlRodCM9yX-22" value="" style="endArrow=classic;html=1;rounded=0;elbow=vertical;edgeStyle=orthogonalEdgeStyle;curved=1;startArrow=classic;startFill=0;strokeColor=#FFFFFF;fillColor=#cdeb8b;shadow=0;strokeWidth=2;exitX=1.007;exitY=0.816;exitDx=0;exitDy=0;exitPerimeter=0;entryX=-0.001;entryY=0.349;entryDx=0;entryDy=0;entryPerimeter=0;" edge="1" parent="1" source="JJ6pGFsBF1nlRodCM9yX-10" target="JJ6pGFsBF1nlRodCM9yX-17">
          <mxGeometry width="50" height="50" relative="1" as="geometry">
            <mxPoint x="-220" y="457" as="sourcePoint" />
            <mxPoint x="-167" y="412" as="targetPoint" />
          </mxGeometry>
        </mxCell>
        <mxCell id="JJ6pGFsBF1nlRodCM9yX-23" value="&lt;font face=&quot;Comic Sans MS&quot;&gt;&lt;b&gt;Contaminacion&lt;/b&gt;&lt;/font&gt;" style="swimlane;childLayout=stackLayout;horizontal=1;startSize=30;horizontalStack=0;rounded=1;fontSize=13;fontStyle=0;strokeWidth=2;resizeParent=0;resizeLast=1;shadow=0;dashed=0;align=center;arcSize=4;whiteSpace=wrap;html=1;labelBackgroundColor=none;fillColor=#F2F200;fontColor=#0F0F0F;strokeColor=#0F0F0F;swimlaneLine=1;gradientColor=none;swimlaneFillColor=#FFFFFF;" vertex="1" parent="1">
          <mxGeometry x="180" y="400" width="200" height="140" as="geometry" />
        </mxCell>
        <mxCell id="JJ6pGFsBF1nlRodCM9yX-24" value="&lt;font face=&quot;Comic Sans MS&quot; style=&quot;font-size: 13px;&quot;&gt;&lt;font color=&quot;#0f0f0f&quot; style=&quot;font-size: 13px;&quot;&gt;{&lt;/font&gt;&lt;br style=&quot;font-size: 13px;&quot;&gt;&lt;span style=&quot;white-space: pre; font-size: 13px;&quot;&gt;&lt;span style=&quot;color: rgb(15, 15, 15); white-space: pre; font-size: 13px;&quot;&gt;&#x9;&lt;/span&gt;&lt;font color=&quot;#ff0000&quot; style=&quot;font-size: 13px;&quot;&gt;&quot;id_contaminacion&lt;/font&gt;&lt;/span&gt;&lt;font color=&quot;#ff0000&quot; style=&quot;font-size: 13px;&quot;&gt;&quot;&lt;/font&gt;&lt;/font&gt;&lt;font face=&quot;Comic Sans MS&quot; style=&quot;font-size: 13px;&quot;&gt;&lt;font color=&quot;#0f0f0f&quot; style=&quot;font-size: 13px;&quot;&gt; : &lt;/font&gt;&lt;font color=&quot;#009900&quot; style=&quot;font-size: 13px;&quot;&gt;int&lt;/font&gt;&lt;font color=&quot;#0f0f0f&quot; style=&quot;font-size: 13px;&quot;&gt;,&lt;/font&gt;&lt;br style=&quot;font-size: 13px;&quot;&gt;&lt;span style=&quot;color: rgb(15, 15, 15); white-space: pre; font-size: 13px;&quot;&gt;&#x9;&lt;/span&gt;&lt;font color=&quot;#ff0000&quot; style=&quot;font-size: 13px;&quot;&gt;&quot;nombre&quot;&lt;/font&gt;&lt;/font&gt;&lt;font face=&quot;Comic Sans MS&quot; style=&quot;font-size: 13px;&quot;&gt;&lt;font color=&quot;#0f0f0f&quot; style=&quot;font-size: 13px;&quot;&gt; : &lt;/font&gt;&lt;font color=&quot;#009900&quot; style=&quot;font-size: 13px;&quot;&gt;&quot;String&quot;&lt;/font&gt;&lt;font color=&quot;#0f0f0f&quot; style=&quot;font-size: 13px;&quot;&gt;,&lt;/font&gt;&lt;br style=&quot;font-size: 13px;&quot;&gt;&lt;span style=&quot;color: rgb(15, 15, 15); white-space: pre; font-size: 13px;&quot;&gt;&#x9;&lt;/span&gt;&lt;font color=&quot;#ff0000&quot; style=&quot;font-size: 13px;&quot;&gt;&quot;descripcion&quot; &lt;/font&gt;&lt;/font&gt;&lt;font face=&quot;Comic Sans MS&quot; style=&quot;font-size: 13px;&quot;&gt;&lt;font color=&quot;#0f0f0f&quot; style=&quot;font-size: 13px;&quot;&gt;: &lt;/font&gt;&lt;font color=&quot;#009900&quot; style=&quot;font-size: 13px;&quot;&gt;&quot;String&quot;&lt;/font&gt;&lt;font color=&quot;#0f0f0f&quot; style=&quot;font-size: 13px;&quot;&gt;,&lt;/font&gt;&lt;br style=&quot;font-size: 13px;&quot;&gt;&lt;span style=&quot;color: rgb(15, 15, 15); white-space: pre; font-size: 13px;&quot;&gt;&#x9;&lt;/span&gt;&lt;font color=&quot;#ff0000&quot; style=&quot;font-size: 13px;&quot;&gt;&quot;alcance&quot;&lt;/font&gt;&lt;/font&gt;&lt;font face=&quot;Comic Sans MS&quot; style=&quot;font-size: 13px;&quot;&gt;&lt;font color=&quot;#0f0f0f&quot; style=&quot;font-size: 13px;&quot;&gt; : &lt;/font&gt;&lt;font color=&quot;#009900&quot; style=&quot;font-size: 13px;&quot;&gt;double&lt;/font&gt;&lt;/font&gt;&lt;font face=&quot;Comic Sans MS&quot; style=&quot;font-size: 13px;&quot;&gt;&lt;br style=&quot;font-size: 13px;&quot;&gt;&lt;font color=&quot;#0f0f0f&quot; style=&quot;font-size: 13px;&quot;&gt;}&lt;/font&gt;&lt;/font&gt;" style="align=left;strokeColor=none;fillColor=none;spacingLeft=4;fontSize=13;verticalAlign=top;resizable=0;rotatable=0;part=1;html=1;" vertex="1" parent="JJ6pGFsBF1nlRodCM9yX-23">
          <mxGeometry y="30" width="200" height="110" as="geometry" />
        </mxCell>
        <mxCell id="JJ6pGFsBF1nlRodCM9yX-25" value="" style="endArrow=classic;html=1;rounded=0;elbow=vertical;edgeStyle=orthogonalEdgeStyle;curved=1;startArrow=classic;startFill=0;strokeColor=#FFFFFF;fillColor=#cdeb8b;shadow=0;strokeWidth=2;exitX=1.01;exitY=0.644;exitDx=0;exitDy=0;exitPerimeter=0;entryX=0;entryY=0.25;entryDx=0;entryDy=0;" edge="1" parent="1" source="JJ6pGFsBF1nlRodCM9yX-17" target="JJ6pGFsBF1nlRodCM9yX-24">
          <mxGeometry width="50" height="50" relative="1" as="geometry">
            <mxPoint x="-218" y="481" as="sourcePoint" />
            <mxPoint x="-170" y="658" as="targetPoint" />
          </mxGeometry>
        </mxCell>
        <mxCell id="JJ6pGFsBF1nlRodCM9yX-26" value="&lt;font face=&quot;Comic Sans MS&quot; style=&quot;font-size: 13px;&quot;&gt;&lt;b style=&quot;font-size: 13px;&quot;&gt;Region_Sierra&lt;/b&gt;&lt;/font&gt;" style="swimlane;childLayout=stackLayout;horizontal=1;startSize=30;horizontalStack=0;rounded=1;fontSize=13;fontStyle=0;strokeWidth=2;resizeParent=0;resizeLast=1;shadow=0;dashed=0;align=center;arcSize=4;whiteSpace=wrap;html=1;labelBackgroundColor=none;fillColor=#86360A;fontColor=#0F0F0F;strokeColor=#0F0F0F;swimlaneLine=1;gradientColor=none;swimlaneFillColor=#FFFFFF;" vertex="1" parent="1">
          <mxGeometry x="-560" y="1240" width="280" height="200" as="geometry" />
        </mxCell>
        <mxCell id="JJ6pGFsBF1nlRodCM9yX-27" value="&lt;font face=&quot;Comic Sans MS&quot; style=&quot;font-size: 13px;&quot;&gt;&lt;font color=&quot;#0f0f0f&quot; style=&quot;font-size: 13px;&quot;&gt;{&lt;/font&gt;&lt;br style=&quot;font-size: 13px;&quot;&gt;&lt;span style=&quot;white-space: pre; font-size: 13px;&quot;&gt;&lt;span style=&quot;color: rgb(15, 15, 15); white-space: pre; font-size: 13px;&quot;&gt;&#x9;&lt;/span&gt;&lt;font color=&quot;#ff0000&quot; style=&quot;font-size: 13px;&quot;&gt;&quot;&lt;/font&gt;&lt;/span&gt;&lt;font color=&quot;#ff0000&quot; style=&quot;font-size: 13px;&quot;&gt;id_region_sierra&quot;&lt;/font&gt;&lt;/font&gt;&lt;font face=&quot;Comic Sans MS&quot; style=&quot;font-size: 13px;&quot;&gt;&lt;font color=&quot;#0f0f0f&quot; style=&quot;font-size: 13px;&quot;&gt; : &lt;/font&gt;&lt;font color=&quot;#009900&quot; style=&quot;font-size: 13px;&quot;&gt;int&lt;/font&gt;&lt;font color=&quot;#0f0f0f&quot; style=&quot;font-size: 13px;&quot;&gt;,&lt;/font&gt;&lt;br style=&quot;font-size: 13px;&quot;&gt;&lt;span style=&quot;color: rgb(15, 15, 15); white-space: pre; font-size: 13px;&quot;&gt;&#x9;&lt;/span&gt;&lt;font color=&quot;#ff0000&quot; style=&quot;font-size: 13px;&quot;&gt;&quot;nombre_departamento&quot;&lt;/font&gt;&lt;/font&gt;&lt;font face=&quot;Comic Sans MS&quot; style=&quot;font-size: 13px;&quot;&gt;&lt;font color=&quot;#0f0f0f&quot; style=&quot;font-size: 13px;&quot;&gt; : &lt;/font&gt;&lt;font color=&quot;#009900&quot; style=&quot;font-size: 13px;&quot;&gt;&quot;String&quot;&lt;/font&gt;&lt;font color=&quot;#0f0f0f&quot; style=&quot;font-size: 13px;&quot;&gt;,&lt;/font&gt;&lt;br style=&quot;font-size: 13px;&quot;&gt;&lt;span style=&quot;color: rgb(15, 15, 15); white-space: pre; font-size: 13px;&quot;&gt;&#x9;&lt;/span&gt;&lt;font color=&quot;#ff0000&quot; style=&quot;font-size: 13px;&quot;&gt;&quot;Superficie&quot; &lt;/font&gt;&lt;/font&gt;&lt;font face=&quot;Comic Sans MS&quot; style=&quot;font-size: 13px;&quot;&gt;&lt;font color=&quot;#0f0f0f&quot; style=&quot;font-size: 13px;&quot;&gt;: &lt;/font&gt;&lt;font color=&quot;#009900&quot; style=&quot;font-size: 13px;&quot;&gt;double&lt;/font&gt;&lt;font color=&quot;#0f0f0f&quot; style=&quot;font-size: 13px;&quot;&gt;,&lt;/font&gt;&lt;br style=&quot;font-size: 13px;&quot;&gt;&lt;span style=&quot;color: rgb(15, 15, 15); white-space: pre; font-size: 13px;&quot;&gt;&#x9;&lt;/span&gt;&lt;font color=&quot;#ff0000&quot; style=&quot;font-size: 13px;&quot;&gt;&quot;hora_local&quot;&lt;/font&gt;&lt;/font&gt;&lt;font face=&quot;Comic Sans MS&quot; style=&quot;font-size: 13px;&quot;&gt;&lt;font color=&quot;#0f0f0f&quot; style=&quot;font-size: 13px;&quot;&gt; : &lt;/font&gt;&lt;font color=&quot;#009900&quot; style=&quot;font-size: 13px;&quot;&gt;new Date(&quot;DD-MM-YY&quot;)&lt;/font&gt;&lt;font color=&quot;#0f0f0f&quot; style=&quot;font-size: 13px;&quot;&gt;,&lt;/font&gt;&lt;br style=&quot;font-size: 13px;&quot;&gt;&lt;span style=&quot;color: rgb(15, 15, 15); white-space: pre; font-size: 13px;&quot;&gt;&#x9;&lt;/span&gt;&lt;font color=&quot;#ff0000&quot; style=&quot;font-size: 13px;&quot;&gt;&quot;poblacion&quot;&lt;/font&gt;&lt;/font&gt;&lt;font face=&quot;Comic Sans MS&quot; style=&quot;font-size: 13px;&quot;&gt;&lt;font color=&quot;#0f0f0f&quot; style=&quot;font-size: 13px;&quot;&gt; : &lt;/font&gt;&lt;font color=&quot;#009900&quot; style=&quot;font-size: 13px;&quot;&gt;int&lt;/font&gt;&lt;font color=&quot;#0f0f0f&quot; style=&quot;font-size: 13px;&quot;&gt;,&lt;/font&gt;&lt;br style=&quot;font-size: 13px;&quot;&gt;&lt;span style=&quot;white-space: pre; font-size: 13px;&quot;&gt;&lt;span style=&quot;color: rgb(15, 15, 15); white-space: pre; font-size: 13px;&quot;&gt;&#x9;&lt;/span&gt;&lt;font color=&quot;#ff0000&quot; style=&quot;font-size: 13px;&quot;&gt;&quot;coordenadas&quot;&lt;/font&gt;&lt;font color=&quot;#0f0f0f&quot; style=&quot;font-size: 13px;&quot;&gt; : &lt;/font&gt;&lt;font color=&quot;#009900&quot; style=&quot;font-size: 13px;&quot;&gt;&quot;String&quot;&lt;/font&gt;&lt;font color=&quot;#0f0f0f&quot; style=&quot;font-size: 13px;&quot;&gt;,&lt;br style=&quot;font-size: 13px;&quot;&gt;&lt;/font&gt;&lt;span style=&quot;color: rgb(15, 15, 15); white-space: pre; font-size: 13px;&quot;&gt;&#x9;&lt;/span&gt;&lt;font color=&quot;#ff0000&quot; style=&quot;font-size: 13px;&quot;&gt;&quot;informe_tiempo&quot;&lt;/font&gt;&lt;font color=&quot;#0f0f0f&quot; style=&quot;font-size: 13px;&quot;&gt; : &lt;/font&gt;&lt;font color=&quot;#009900&quot; style=&quot;font-size: 13px;&quot;&gt;{}&lt;/font&gt;&lt;font color=&quot;#0f0f0f&quot; style=&quot;font-size: 13px;&quot;&gt;,&lt;br style=&quot;font-size: 13px;&quot;&gt;&lt;/font&gt;&lt;span style=&quot;color: rgb(15, 15, 15); white-space: pre; font-size: 13px;&quot;&gt;&#x9;&lt;/span&gt;&lt;font color=&quot;#ff0000&quot; style=&quot;font-size: 13px;&quot;&gt;&quot;estacion&quot;&lt;/font&gt;&lt;font color=&quot;#0f0f0f&quot; style=&quot;font-size: 13px;&quot;&gt; : &lt;/font&gt;&lt;font color=&quot;#009900&quot; style=&quot;font-size: 13px;&quot;&gt;{}&#x9;&lt;/font&gt;&lt;/span&gt;&lt;br style=&quot;font-size: 13px;&quot;&gt;&lt;font color=&quot;#0f0f0f&quot; style=&quot;font-size: 13px;&quot;&gt;}&lt;/font&gt;&lt;/font&gt;" style="align=left;strokeColor=none;fillColor=none;spacingLeft=4;fontSize=13;verticalAlign=top;resizable=0;rotatable=0;part=1;html=1;" vertex="1" parent="JJ6pGFsBF1nlRodCM9yX-26">
          <mxGeometry y="30" width="280" height="170" as="geometry" />
        </mxCell>
        <mxCell id="JJ6pGFsBF1nlRodCM9yX-28" value="&lt;font face=&quot;Comic Sans MS&quot;&gt;&lt;b&gt;Informe_Tiempo&lt;/b&gt;&lt;/font&gt;" style="swimlane;childLayout=stackLayout;horizontal=1;startSize=30;horizontalStack=0;rounded=1;fontSize=13;fontStyle=0;strokeWidth=2;resizeParent=0;resizeLast=1;shadow=0;dashed=0;align=center;arcSize=4;whiteSpace=wrap;html=1;labelBackgroundColor=none;fillColor=#86360A;fontColor=#0F0F0F;strokeColor=#0F0F0F;swimlaneLine=1;gradientColor=none;swimlaneFillColor=#FFFFFF;" vertex="1" parent="1">
          <mxGeometry x="-200" y="1150" width="200" height="140" as="geometry" />
        </mxCell>
        <mxCell id="JJ6pGFsBF1nlRodCM9yX-29" value="&lt;font face=&quot;Comic Sans MS&quot; style=&quot;font-size: 13px;&quot;&gt;&lt;font color=&quot;#0f0f0f&quot; style=&quot;font-size: 13px;&quot;&gt;{&lt;/font&gt;&lt;br style=&quot;font-size: 13px;&quot;&gt;&lt;span style=&quot;white-space: pre; font-size: 13px;&quot;&gt;&lt;span style=&quot;color: rgb(15, 15, 15); white-space: pre; font-size: 13px;&quot;&gt;&#x9;&lt;/span&gt;&lt;font color=&quot;#ff0000&quot; style=&quot;font-size: 13px;&quot;&gt;&quot;&lt;/font&gt;&lt;/span&gt;&lt;font color=&quot;#ff0000&quot; style=&quot;font-size: 13px;&quot;&gt;id_inf_tiempo&quot;&lt;/font&gt;&lt;/font&gt;&lt;font face=&quot;Comic Sans MS&quot; style=&quot;font-size: 13px;&quot;&gt;&lt;font color=&quot;#0f0f0f&quot; style=&quot;font-size: 13px;&quot;&gt; : &lt;/font&gt;&lt;font color=&quot;#009900&quot; style=&quot;font-size: 13px;&quot;&gt;int&lt;/font&gt;&lt;font color=&quot;#0f0f0f&quot; style=&quot;font-size: 13px;&quot;&gt;,&lt;/font&gt;&lt;br style=&quot;font-size: 13px;&quot;&gt;&lt;span style=&quot;color: rgb(15, 15, 15); white-space: pre; font-size: 13px;&quot;&gt;&#x9;&lt;/span&gt;&lt;font color=&quot;#ff0000&quot; style=&quot;font-size: 13px;&quot;&gt;&quot;temperatura&quot;&lt;/font&gt;&lt;/font&gt;&lt;font face=&quot;Comic Sans MS&quot; style=&quot;font-size: 13px;&quot;&gt;&lt;font color=&quot;#0f0f0f&quot; style=&quot;font-size: 13px;&quot;&gt; : &lt;/font&gt;&lt;font color=&quot;#009900&quot; style=&quot;font-size: 13px;&quot;&gt;double&lt;/font&gt;&lt;font color=&quot;#0f0f0f&quot; style=&quot;font-size: 13px;&quot;&gt;,&lt;/font&gt;&lt;br style=&quot;font-size: 13px;&quot;&gt;&lt;span style=&quot;color: rgb(15, 15, 15); white-space: pre; font-size: 13px;&quot;&gt;&#x9;&lt;/span&gt;&lt;font color=&quot;#ff0000&quot; style=&quot;font-size: 13px;&quot;&gt;&quot;elevacion&quot; &lt;/font&gt;&lt;/font&gt;&lt;font face=&quot;Comic Sans MS&quot; style=&quot;font-size: 13px;&quot;&gt;&lt;font color=&quot;#0f0f0f&quot; style=&quot;font-size: 13px;&quot;&gt;: &lt;/font&gt;&lt;font color=&quot;#009900&quot; style=&quot;font-size: 13px;&quot;&gt;double&lt;/font&gt;&lt;font color=&quot;#0f0f0f&quot; style=&quot;font-size: 13px;&quot;&gt;,&lt;/font&gt;&lt;br style=&quot;font-size: 13px;&quot;&gt;&lt;span style=&quot;color: rgb(15, 15, 15); white-space: pre; font-size: 13px;&quot;&gt;&#x9;&lt;/span&gt;&lt;font color=&quot;#ff0000&quot; style=&quot;font-size: 13px;&quot;&gt;&quot;clima&quot;&lt;/font&gt;&lt;/font&gt;&lt;font face=&quot;Comic Sans MS&quot; style=&quot;font-size: 13px;&quot;&gt;&lt;font color=&quot;#0f0f0f&quot; style=&quot;font-size: 13px;&quot;&gt; : &lt;/font&gt;&lt;font color=&quot;#009900&quot; style=&quot;font-size: 13px;&quot;&gt;&quot;String&quot;&lt;/font&gt;&lt;/font&gt;&lt;font face=&quot;Comic Sans MS&quot; style=&quot;font-size: 13px;&quot;&gt;&lt;span style=&quot;white-space: pre; font-size: 13px;&quot;&gt;&lt;font color=&quot;#009900&quot; style=&quot;font-size: 13px;&quot;&gt;&#x9;&lt;/font&gt;&lt;/span&gt;&lt;br style=&quot;font-size: 13px;&quot;&gt;&lt;font color=&quot;#0f0f0f&quot; style=&quot;font-size: 13px;&quot;&gt;}&lt;/font&gt;&lt;/font&gt;" style="align=left;strokeColor=none;fillColor=none;spacingLeft=4;fontSize=13;verticalAlign=top;resizable=0;rotatable=0;part=1;html=1;" vertex="1" parent="JJ6pGFsBF1nlRodCM9yX-28">
          <mxGeometry y="30" width="200" height="110" as="geometry" />
        </mxCell>
        <mxCell id="JJ6pGFsBF1nlRodCM9yX-30" value="" style="endArrow=classic;html=1;rounded=0;elbow=vertical;edgeStyle=orthogonalEdgeStyle;curved=1;startArrow=classic;startFill=0;strokeColor=#FFFFFF;fillColor=#cdeb8b;shadow=0;strokeWidth=2;entryX=0.011;entryY=0.306;entryDx=0;entryDy=0;entryPerimeter=0;" edge="1" parent="1" target="JJ6pGFsBF1nlRodCM9yX-29">
          <mxGeometry width="50" height="50" relative="1" as="geometry">
            <mxPoint x="-280" y="1290" as="sourcePoint" />
            <mxPoint x="-210" y="1100" as="targetPoint" />
          </mxGeometry>
        </mxCell>
        <mxCell id="JJ6pGFsBF1nlRodCM9yX-31" value="&lt;font face=&quot;Comic Sans MS&quot;&gt;&lt;b&gt;Estacion&lt;/b&gt;&lt;/font&gt;" style="swimlane;childLayout=stackLayout;horizontal=1;startSize=30;horizontalStack=0;rounded=1;fontSize=13;fontStyle=0;strokeWidth=2;resizeParent=0;resizeLast=1;shadow=0;dashed=0;align=center;arcSize=4;whiteSpace=wrap;html=1;labelBackgroundColor=none;fillColor=#86360A;fontColor=#0F0F0F;strokeColor=#0F0F0F;swimlaneLine=1;gradientColor=none;swimlaneFillColor=#FFFFFF;" vertex="1" parent="1">
          <mxGeometry x="-210" y="1320" width="220" height="190" as="geometry" />
        </mxCell>
        <mxCell id="JJ6pGFsBF1nlRodCM9yX-32" value="&lt;font face=&quot;Comic Sans MS&quot; style=&quot;font-size: 13px;&quot;&gt;&lt;font color=&quot;#0f0f0f&quot; style=&quot;font-size: 13px;&quot;&gt;{&lt;/font&gt;&lt;br style=&quot;font-size: 13px;&quot;&gt;&lt;span style=&quot;font-size: 13px;&quot;&gt;&lt;span style=&quot;color: rgb(15, 15, 15); font-size: 13px;&quot;&gt;&lt;span style=&quot;white-space: pre;&quot;&gt;&amp;nbsp;&amp;nbsp;&amp;nbsp;&amp;nbsp;&lt;/span&gt;&lt;/span&gt;&lt;font color=&quot;#ff0000&quot; style=&quot;font-size: 13px;&quot;&gt;&quot;&lt;/font&gt;&lt;/span&gt;&lt;font color=&quot;#ff0000&quot; style=&quot;font-size: 13px;&quot;&gt;id_estacion&quot;&lt;/font&gt;&lt;/font&gt;&lt;font face=&quot;Comic Sans MS&quot; style=&quot;font-size: 13px;&quot;&gt;&lt;font color=&quot;#0f0f0f&quot; style=&quot;font-size: 13px;&quot;&gt; : &lt;/font&gt;&lt;font color=&quot;#009900&quot; style=&quot;font-size: 13px;&quot;&gt;int&lt;/font&gt;&lt;font color=&quot;#0f0f0f&quot; style=&quot;font-size: 13px;&quot;&gt;,&lt;/font&gt;&lt;br style=&quot;font-size: 13px;&quot;&gt;&lt;span style=&quot;color: rgb(15, 15, 15); font-size: 13px;&quot;&gt;&lt;span style=&quot;white-space: pre;&quot;&gt;&amp;nbsp;&amp;nbsp;&amp;nbsp;&amp;nbsp;&lt;/span&gt;&lt;/span&gt;&lt;font color=&quot;#ff0000&quot; style=&quot;font-size: 13px;&quot;&gt;&quot;nombre_estacion&quot;&lt;/font&gt;&lt;/font&gt;&lt;font face=&quot;Comic Sans MS&quot; style=&quot;font-size: 13px;&quot;&gt;&lt;font color=&quot;#0f0f0f&quot; style=&quot;font-size: 13px;&quot;&gt; : &lt;/font&gt;&lt;font color=&quot;#009900&quot; style=&quot;font-size: 13px;&quot;&gt;&quot;String&quot;&lt;/font&gt;&lt;font color=&quot;#0f0f0f&quot; style=&quot;font-size: 13px;&quot;&gt;,&lt;/font&gt;&lt;br style=&quot;font-size: 13px;&quot;&gt;&lt;span style=&quot;color: rgb(15, 15, 15); font-size: 13px;&quot;&gt;&lt;span style=&quot;white-space: pre;&quot;&gt;&amp;nbsp;&amp;nbsp;&amp;nbsp;&amp;nbsp;&lt;/span&gt;&lt;/span&gt;&lt;font color=&quot;#ff0000&quot; style=&quot;font-size: 13px;&quot;&gt;&quot;ubicacion&quot; &lt;/font&gt;&lt;/font&gt;&lt;font face=&quot;Comic Sans MS&quot; style=&quot;font-size: 13px;&quot;&gt;&lt;font color=&quot;#0f0f0f&quot; style=&quot;font-size: 13px;&quot;&gt;: &lt;/font&gt;&lt;font color=&quot;#009900&quot; style=&quot;font-size: 13px;&quot;&gt;&quot;String&quot;&lt;/font&gt;&lt;font color=&quot;#0f0f0f&quot; style=&quot;font-size: 13px;&quot;&gt;,&lt;/font&gt;&lt;br style=&quot;font-size: 13px;&quot;&gt;&lt;span style=&quot;color: rgb(15, 15, 15); font-size: 13px;&quot;&gt;&lt;span style=&quot;white-space: pre;&quot;&gt;&amp;nbsp;&amp;nbsp;&amp;nbsp;&amp;nbsp;&lt;/span&gt;&lt;/span&gt;&lt;font color=&quot;#ff0000&quot; style=&quot;font-size: 13px;&quot;&gt;&quot;estacion_alcance&quot;&lt;/font&gt;&lt;/font&gt;&lt;font face=&quot;Comic Sans MS&quot; style=&quot;font-size: 13px;&quot;&gt;&lt;font color=&quot;#0f0f0f&quot; style=&quot;font-size: 13px;&quot;&gt; : &lt;/font&gt;&lt;font color=&quot;#009900&quot; style=&quot;font-size: 13px;&quot;&gt;double,&lt;br&gt;&lt;/font&gt;&lt;/font&gt;&lt;font face=&quot;Comic Sans MS&quot;&gt;&lt;font color=&quot;#ff0000&quot;&gt;&amp;nbsp; &amp;nbsp; &quot;trabajadores&quot;&lt;/font&gt;&lt;/font&gt;&lt;font face=&quot;Comic Sans MS&quot;&gt;&lt;font color=&quot;#0f0f0f&quot;&gt;&amp;nbsp;:&amp;nbsp;&lt;/font&gt;&lt;font color=&quot;#009900&quot;&gt;array&lt;/font&gt;&lt;font color=&quot;#0f0f0f&quot;&gt;,&lt;/font&gt;&lt;br&gt;&lt;span style=&quot;white-space: pre;&quot;&gt;&amp;nbsp;&amp;nbsp;&amp;nbsp;&amp;nbsp;&lt;/span&gt;&lt;font color=&quot;#ff0000&quot;&gt;&quot;equipo_monitoreo&quot;&amp;nbsp;&lt;/font&gt;&lt;/font&gt;&lt;font face=&quot;Comic Sans MS&quot;&gt;&lt;font color=&quot;#0f0f0f&quot;&gt;: &lt;/font&gt;&lt;font color=&quot;#009900&quot;&gt;{}&lt;/font&gt;&lt;font color=&quot;#0f0f0f&quot;&gt;,&lt;/font&gt;&lt;br&gt;&lt;span style=&quot;color: rgb(15, 15, 15);&quot;&gt;&lt;span style=&quot;white-space: pre;&quot;&gt;&amp;nbsp;&amp;nbsp;&amp;nbsp;&amp;nbsp;&lt;/span&gt;&lt;/span&gt;&lt;font color=&quot;#ff0000&quot;&gt;&quot;medicion_inf&quot;&lt;/font&gt;&lt;/font&gt;&lt;font face=&quot;Comic Sans MS&quot;&gt;&lt;font color=&quot;#0f0f0f&quot;&gt;&amp;nbsp;:&amp;nbsp;&lt;/font&gt;&lt;font color=&quot;#009900&quot;&gt;{},&lt;/font&gt;&lt;/font&gt;&lt;font face=&quot;Comic Sans MS&quot; style=&quot;font-size: 13px;&quot;&gt;&lt;span style=&quot;font-size: 13px;&quot;&gt;&lt;font color=&quot;#009900&quot; style=&quot;font-size: 13px;&quot;&gt;&lt;span style=&quot;white-space: pre;&quot;&gt;&amp;nbsp;&lt;/span&gt;&lt;/font&gt;&lt;/span&gt;&lt;br style=&quot;font-size: 13px;&quot;&gt;&lt;font color=&quot;#0f0f0f&quot; style=&quot;font-size: 13px;&quot;&gt;}&lt;/font&gt;&lt;/font&gt;" style="align=left;strokeColor=none;fillColor=none;spacingLeft=4;fontSize=13;verticalAlign=top;resizable=0;rotatable=0;part=1;html=1;" vertex="1" parent="JJ6pGFsBF1nlRodCM9yX-31">
          <mxGeometry y="30" width="220" height="160" as="geometry" />
        </mxCell>
        <mxCell id="JJ6pGFsBF1nlRodCM9yX-33" value="" style="endArrow=classic;html=1;rounded=0;elbow=vertical;edgeStyle=orthogonalEdgeStyle;curved=1;startArrow=classic;startFill=0;strokeColor=#E6D0DE;fillColor=#e1d5e7;shadow=0;strokeWidth=2;exitX=1.005;exitY=0.827;exitDx=0;exitDy=0;exitPerimeter=0;entryX=0.006;entryY=0.215;entryDx=0;entryDy=0;entryPerimeter=0;" edge="1" parent="1" source="JJ6pGFsBF1nlRodCM9yX-27" target="JJ6pGFsBF1nlRodCM9yX-32">
          <mxGeometry width="50" height="50" relative="1" as="geometry">
            <mxPoint x="-270" y="1260" as="sourcePoint" />
            <mxPoint x="-200" y="1120" as="targetPoint" />
          </mxGeometry>
        </mxCell>
        <mxCell id="JJ6pGFsBF1nlRodCM9yX-34" value="&lt;font face=&quot;Comic Sans MS&quot;&gt;&lt;b&gt;Trabajadores&lt;/b&gt;&lt;/font&gt;" style="swimlane;childLayout=stackLayout;horizontal=1;startSize=30;horizontalStack=0;rounded=1;fontSize=13;fontStyle=0;strokeWidth=2;resizeParent=0;resizeLast=1;shadow=0;dashed=0;align=center;arcSize=4;whiteSpace=wrap;html=1;labelBackgroundColor=none;fillColor=#86360A;fontColor=#0F0F0F;strokeColor=#0F0F0F;swimlaneLine=1;gradientColor=none;swimlaneFillColor=#FFFFFF;" vertex="1" parent="1">
          <mxGeometry x="60" y="1060" width="210" height="260" as="geometry" />
        </mxCell>
        <mxCell id="JJ6pGFsBF1nlRodCM9yX-35" value="&lt;font face=&quot;Comic Sans MS&quot; style=&quot;font-size: 13px;&quot;&gt;&lt;font color=&quot;#0f0f0f&quot; style=&quot;font-size: 13px;&quot;&gt;{&lt;/font&gt;&lt;br style=&quot;font-size: 13px;&quot;&gt;&lt;span style=&quot;font-size: 13px;&quot;&gt;&lt;span style=&quot;color: rgb(15, 15, 15); font-size: 13px;&quot;&gt;&lt;span style=&quot;white-space: pre;&quot;&gt;&amp;nbsp;&amp;nbsp;&amp;nbsp;&amp;nbsp;&lt;span style=&quot;white-space: pre;&quot;&gt;&#x9;&lt;/span&gt;&lt;/span&gt;&lt;/span&gt;&lt;font color=&quot;#ff0000&quot; style=&quot;font-size: 13px;&quot;&gt;&quot;id_trabajador&lt;/font&gt;&lt;/span&gt;&lt;font color=&quot;#ff0000&quot; style=&quot;font-size: 13px;&quot;&gt;&quot;&lt;/font&gt;&lt;/font&gt;&lt;font face=&quot;Comic Sans MS&quot; style=&quot;font-size: 13px;&quot;&gt;&lt;font color=&quot;#0f0f0f&quot; style=&quot;font-size: 13px;&quot;&gt; : &lt;/font&gt;&lt;font color=&quot;#009900&quot; style=&quot;font-size: 13px;&quot;&gt;int&lt;/font&gt;&lt;font color=&quot;#0f0f0f&quot; style=&quot;font-size: 13px;&quot;&gt;,&lt;/font&gt;&lt;br style=&quot;font-size: 13px;&quot;&gt;&lt;span style=&quot;color: rgb(15, 15, 15); font-size: 13px;&quot;&gt;&lt;span style=&quot;white-space: pre;&quot;&gt;&amp;nbsp;&amp;nbsp;&amp;nbsp;&amp;nbsp;&lt;span style=&quot;white-space: pre;&quot;&gt;&#x9;&lt;/span&gt;&lt;/span&gt;&lt;/span&gt;&lt;font color=&quot;#ff0000&quot; style=&quot;font-size: 13px;&quot;&gt;&quot;nombre&quot;&lt;/font&gt;&lt;/font&gt;&lt;font face=&quot;Comic Sans MS&quot; style=&quot;font-size: 13px;&quot;&gt;&lt;font color=&quot;#0f0f0f&quot; style=&quot;font-size: 13px;&quot;&gt; : &lt;/font&gt;&lt;font color=&quot;#009900&quot; style=&quot;font-size: 13px;&quot;&gt;&quot;String&quot;&lt;/font&gt;&lt;font color=&quot;#0f0f0f&quot; style=&quot;font-size: 13px;&quot;&gt;,&lt;/font&gt;&lt;br style=&quot;font-size: 13px;&quot;&gt;&lt;span style=&quot;color: rgb(15, 15, 15); font-size: 13px;&quot;&gt;&lt;span style=&quot;white-space: pre;&quot;&gt;&amp;nbsp;&amp;nbsp;&amp;nbsp;&amp;nbsp;&lt;span style=&quot;white-space: pre;&quot;&gt;&#x9;&lt;/span&gt;&lt;/span&gt;&lt;/span&gt;&lt;font color=&quot;#ff0000&quot; style=&quot;font-size: 13px;&quot;&gt;&quot;ap_p&quot; &lt;/font&gt;&lt;/font&gt;&lt;font face=&quot;Comic Sans MS&quot; style=&quot;font-size: 13px;&quot;&gt;&lt;font color=&quot;#0f0f0f&quot; style=&quot;font-size: 13px;&quot;&gt;: &lt;/font&gt;&lt;font color=&quot;#009900&quot; style=&quot;font-size: 13px;&quot;&gt;double&lt;/font&gt;&lt;font color=&quot;#0f0f0f&quot; style=&quot;font-size: 13px;&quot;&gt;,&lt;/font&gt;&lt;br style=&quot;font-size: 13px;&quot;&gt;&lt;span style=&quot;color: rgb(15, 15, 15); font-size: 13px;&quot;&gt;&lt;span style=&quot;white-space: pre;&quot;&gt;&amp;nbsp;&amp;nbsp;&amp;nbsp;&amp;nbsp;&lt;span style=&quot;white-space: pre;&quot;&gt;&#x9;&lt;/span&gt;&lt;/span&gt;&lt;/span&gt;&lt;font color=&quot;#ff0000&quot; style=&quot;font-size: 13px;&quot;&gt;&quot;ap_m&quot;&lt;/font&gt;&lt;/font&gt;&lt;font face=&quot;Comic Sans MS&quot; style=&quot;font-size: 13px;&quot;&gt;&lt;font color=&quot;#0f0f0f&quot; style=&quot;font-size: 13px;&quot;&gt; : &lt;/font&gt;&lt;font color=&quot;#009900&quot; style=&quot;font-size: 13px;&quot;&gt;&quot;String&quot;&lt;/font&gt;&lt;font color=&quot;#0f0f0f&quot; style=&quot;font-size: 13px;&quot;&gt;,&lt;/font&gt;&lt;br style=&quot;font-size: 13px;&quot;&gt;&lt;span style=&quot;color: rgb(15, 15, 15); font-size: 13px;&quot;&gt;&lt;span style=&quot;white-space: pre;&quot;&gt;&amp;nbsp;&amp;nbsp;&amp;nbsp;&amp;nbsp;&lt;span style=&quot;white-space: pre;&quot;&gt;&#x9;&lt;/span&gt;&lt;/span&gt;&lt;/span&gt;&lt;font color=&quot;#ff0000&quot; style=&quot;font-size: 13px;&quot;&gt;&quot;edad&quot;&lt;/font&gt;&lt;/font&gt;&lt;font face=&quot;Comic Sans MS&quot; style=&quot;font-size: 13px;&quot;&gt;&lt;font color=&quot;#0f0f0f&quot; style=&quot;font-size: 13px;&quot;&gt; : &lt;/font&gt;&lt;font color=&quot;#009900&quot; style=&quot;font-size: 13px;&quot;&gt;int&lt;/font&gt;&lt;font color=&quot;#0f0f0f&quot; style=&quot;font-size: 13px;&quot;&gt;,&lt;/font&gt;&lt;br style=&quot;font-size: 13px;&quot;&gt;&lt;font color=&quot;#ff0000&quot; style=&quot;font-size: 13px;&quot;&gt;&amp;nbsp; &amp;nbsp; &lt;span style=&quot;white-space: pre;&quot;&gt;&#x9;&lt;/span&gt;&quot;address&quot;&lt;/font&gt;&lt;font color=&quot;#0f0f0f&quot; style=&quot;font-size: 13px;&quot;&gt; : &lt;/font&gt;&lt;font color=&quot;#009900&quot; style=&quot;font-size: 13px;&quot;&gt;&quot;String&quot;&lt;/font&gt;&lt;font color=&quot;#0f0f0f&quot; style=&quot;font-size: 13px;&quot;&gt;,&lt;br style=&quot;font-size: 13px;&quot;&gt;&lt;/font&gt;&lt;font color=&quot;#ff0000&quot; style=&quot;font-size: 13px;&quot;&gt;&amp;nbsp; &amp;nbsp; &lt;span style=&quot;white-space: pre;&quot;&gt;&#x9;&lt;/span&gt;&quot;telefono&quot;&lt;/font&gt;&lt;font color=&quot;#0f0f0f&quot; style=&quot;font-size: 13px;&quot;&gt; : &lt;/font&gt;&lt;font color=&quot;#009900&quot; style=&quot;font-size: 13px;&quot;&gt;&quot;String&quot;&lt;/font&gt;&lt;font color=&quot;#0f0f0f&quot; style=&quot;font-size: 13px;&quot;&gt;,&lt;br style=&quot;font-size: 13px;&quot;&gt;&lt;/font&gt;&lt;font color=&quot;#ff0000&quot; style=&quot;font-size: 13px;&quot;&gt;&amp;nbsp; &amp;nbsp; &lt;span style=&quot;white-space: pre;&quot;&gt;&#x9;&lt;/span&gt;&quot;rol&quot;&lt;/font&gt;&lt;font color=&quot;#0f0f0f&quot; style=&quot;font-size: 13px;&quot;&gt; : &lt;/font&gt;&lt;font style=&quot;font-size: 13px;&quot;&gt;&lt;font color=&quot;#009900&quot;&gt;&quot;String&quot;,&lt;/font&gt;&lt;font color=&quot;#0f0f0f&quot;&gt;&lt;span style=&quot;white-space-collapse: preserve;&quot;&gt;&lt;br&gt;&lt;/span&gt;&lt;/font&gt;&lt;/font&gt;&lt;/font&gt;&lt;font style=&quot;border-color: var(--border-color); font-family: &amp;quot;Comic Sans MS&amp;quot;;&quot; color=&quot;#ff0000&quot;&gt;&amp;nbsp; &amp;nbsp; &lt;span style=&quot;white-space: pre;&quot;&gt;&#x9;&lt;/span&gt;&quot;email&quot;&lt;/font&gt;&lt;font style=&quot;border-color: var(--border-color); font-family: &amp;quot;Comic Sans MS&amp;quot;;&quot; color=&quot;#0f0f0f&quot;&gt; : &lt;/font&gt;&lt;font style=&quot;border-color: var(--border-color); font-family: &amp;quot;Comic Sans MS&amp;quot;;&quot; color=&quot;#009900&quot;&gt;&quot;String&quot;&lt;/font&gt;&lt;font style=&quot;border-color: var(--border-color); font-family: &amp;quot;Comic Sans MS&amp;quot;;&quot; color=&quot;#0f0f0f&quot;&gt;,&lt;br style=&quot;border-color: var(--border-color);&quot;&gt;&lt;/font&gt;&lt;span style=&quot;border-color: var(--border-color); font-family: &amp;quot;Comic Sans MS&amp;quot;; color: rgb(15, 15, 15);&quot;&gt;&lt;span style=&quot;white-space: pre;&quot;&gt;&amp;nbsp;&amp;nbsp;&amp;nbsp;&amp;nbsp;&lt;span style=&quot;white-space: pre;&quot;&gt;&#x9;&lt;/span&gt;&lt;/span&gt;&lt;/span&gt;&lt;font style=&quot;border-color: var(--border-color); font-family: &amp;quot;Comic Sans MS&amp;quot;;&quot; color=&quot;#ff0000&quot;&gt;&quot;horario_turno&quot;&lt;/font&gt;&lt;font style=&quot;border-color: var(--border-color); font-family: &amp;quot;Comic Sans MS&amp;quot;;&quot; color=&quot;#0f0f0f&quot;&gt; : &lt;/font&gt;&lt;font style=&quot;border-color: var(--border-color); font-family: &amp;quot;Comic Sans MS&amp;quot;;&quot; color=&quot;#009900&quot;&gt;&quot;String&quot;&lt;/font&gt;&lt;font style=&quot;border-color: var(--border-color); font-family: &amp;quot;Comic Sans MS&amp;quot;;&quot; color=&quot;#0f0f0f&quot;&gt;,&lt;br style=&quot;border-color: var(--border-color);&quot;&gt;&lt;/font&gt;&lt;span style=&quot;border-color: var(--border-color); font-family: &amp;quot;Comic Sans MS&amp;quot;; color: rgb(15, 15, 15);&quot;&gt;&lt;span style=&quot;white-space: pre;&quot;&gt;&amp;nbsp;&amp;nbsp;&amp;nbsp;&amp;nbsp;&lt;span style=&quot;white-space: pre;&quot;&gt;&#x9;&lt;/span&gt;&lt;/span&gt;&lt;/span&gt;&lt;font style=&quot;border-color: var(--border-color); font-family: &amp;quot;Comic Sans MS&amp;quot;;&quot; color=&quot;#ff0000&quot;&gt;&quot;active&quot;&lt;/font&gt;&lt;font style=&quot;border-color: var(--border-color); font-family: &amp;quot;Comic Sans MS&amp;quot;;&quot; color=&quot;#0f0f0f&quot;&gt; : &lt;/font&gt;&lt;font style=&quot;border-color: var(--border-color); font-family: &amp;quot;Comic Sans MS&amp;quot;;&quot; color=&quot;#009900&quot;&gt;Boolean,&lt;/font&gt;&lt;font face=&quot;Comic Sans MS&quot; style=&quot;font-size: 13px;&quot;&gt;&lt;span style=&quot;font-size: 13px;&quot;&gt;&lt;font color=&quot;#009900&quot; style=&quot;font-size: 13px;&quot;&gt;&lt;br&gt;&lt;span style=&quot;white-space: pre;&quot;&gt;&amp;nbsp;&amp;nbsp;&amp;nbsp;&amp;nbsp;&lt;/span&gt;&lt;/font&gt;&lt;/span&gt;&lt;br style=&quot;font-size: 13px;&quot;&gt;&lt;font color=&quot;#0f0f0f&quot; style=&quot;font-size: 13px;&quot;&gt;}&lt;/font&gt;&lt;/font&gt;" style="align=left;strokeColor=none;fillColor=none;spacingLeft=4;fontSize=13;verticalAlign=top;resizable=0;rotatable=0;part=1;html=1;" vertex="1" parent="JJ6pGFsBF1nlRodCM9yX-34">
          <mxGeometry y="30" width="210" height="230" as="geometry" />
        </mxCell>
        <mxCell id="JJ6pGFsBF1nlRodCM9yX-36" value="&lt;font face=&quot;Comic Sans MS&quot;&gt;&lt;b&gt;Equipo_Monitoreo&lt;/b&gt;&lt;/font&gt;" style="swimlane;childLayout=stackLayout;horizontal=1;startSize=30;horizontalStack=0;rounded=1;fontSize=13;fontStyle=0;strokeWidth=2;resizeParent=0;resizeLast=1;shadow=0;dashed=0;align=center;arcSize=4;whiteSpace=wrap;html=1;labelBackgroundColor=none;fillColor=#86360A;fontColor=#0F0F0F;strokeColor=#0F0F0F;swimlaneLine=1;gradientColor=none;swimlaneFillColor=#FFFFFF;" vertex="1" parent="1">
          <mxGeometry x="60" y="1350" width="291" height="220" as="geometry" />
        </mxCell>
        <mxCell id="JJ6pGFsBF1nlRodCM9yX-37" value="" style="endArrow=classic;html=1;rounded=0;elbow=vertical;edgeStyle=orthogonalEdgeStyle;curved=1;startArrow=classic;startFill=0;strokeColor=#E6D0DE;fillColor=#cdeb8b;shadow=0;strokeWidth=2;exitX=1.005;exitY=0.827;exitDx=0;exitDy=0;exitPerimeter=0;entryX=0.003;entryY=0.148;entryDx=0;entryDy=0;entryPerimeter=0;" edge="1" parent="JJ6pGFsBF1nlRodCM9yX-36" target="JJ6pGFsBF1nlRodCM9yX-35">
          <mxGeometry width="50" height="50" relative="1" as="geometry">
            <mxPoint x="-50" y="89.48000000000002" as="sourcePoint" />
            <mxPoint x="-20" y="-110" as="targetPoint" />
          </mxGeometry>
        </mxCell>
        <mxCell id="JJ6pGFsBF1nlRodCM9yX-38" value="&lt;font face=&quot;Comic Sans MS&quot; style=&quot;font-size: 13px;&quot;&gt;&lt;font color=&quot;#0f0f0f&quot; style=&quot;font-size: 13px;&quot;&gt;{&lt;/font&gt;&lt;br style=&quot;font-size: 13px;&quot;&gt;&lt;span style=&quot;font-size: 13px;&quot;&gt;&lt;span style=&quot;color: rgb(15, 15, 15); font-size: 13px;&quot;&gt;&lt;span style=&quot;white-space: pre;&quot;&gt;&amp;nbsp;&amp;nbsp;&amp;nbsp;&amp;nbsp;&lt;span style=&quot;white-space: pre;&quot;&gt;&#x9;&lt;/span&gt;&lt;/span&gt;&lt;/span&gt;&lt;font color=&quot;#ff0000&quot; style=&quot;font-size: 13px;&quot;&gt;&quot;id_equipo&lt;/font&gt;&lt;/span&gt;&lt;font color=&quot;#ff0000&quot; style=&quot;font-size: 13px;&quot;&gt;&quot;&lt;/font&gt;&lt;/font&gt;&lt;font face=&quot;Comic Sans MS&quot; style=&quot;font-size: 13px;&quot;&gt;&lt;font color=&quot;#0f0f0f&quot; style=&quot;font-size: 13px;&quot;&gt; : &lt;/font&gt;&lt;font color=&quot;#009900&quot; style=&quot;font-size: 13px;&quot;&gt;int&lt;/font&gt;&lt;font color=&quot;#0f0f0f&quot; style=&quot;font-size: 13px;&quot;&gt;,&lt;/font&gt;&lt;br style=&quot;font-size: 13px;&quot;&gt;&lt;span style=&quot;color: rgb(15, 15, 15); font-size: 13px;&quot;&gt;&lt;span style=&quot;white-space: pre;&quot;&gt;&amp;nbsp;&amp;nbsp;&amp;nbsp;&amp;nbsp;&lt;span style=&quot;white-space: pre;&quot;&gt;&#x9;&lt;/span&gt;&lt;/span&gt;&lt;/span&gt;&lt;font color=&quot;#ff0000&quot; style=&quot;font-size: 13px;&quot;&gt;&quot;nombre&quot;&lt;/font&gt;&lt;/font&gt;&lt;font face=&quot;Comic Sans MS&quot; style=&quot;font-size: 13px;&quot;&gt;&lt;font color=&quot;#0f0f0f&quot; style=&quot;font-size: 13px;&quot;&gt; : &lt;/font&gt;&lt;font color=&quot;#009900&quot; style=&quot;font-size: 13px;&quot;&gt;&quot;String&quot;&lt;/font&gt;&lt;font color=&quot;#0f0f0f&quot; style=&quot;font-size: 13px;&quot;&gt;,&lt;/font&gt;&lt;br style=&quot;font-size: 13px;&quot;&gt;&lt;span style=&quot;color: rgb(15, 15, 15); font-size: 13px;&quot;&gt;&lt;span style=&quot;white-space: pre;&quot;&gt;&amp;nbsp;&amp;nbsp;&amp;nbsp;&amp;nbsp;&lt;span style=&quot;white-space: pre;&quot;&gt;&#x9;&lt;/span&gt;&lt;/span&gt;&lt;/span&gt;&lt;font color=&quot;#ff0000&quot; style=&quot;font-size: 13px;&quot;&gt;&quot;tipo_equipo&quot; &lt;/font&gt;&lt;/font&gt;&lt;font face=&quot;Comic Sans MS&quot; style=&quot;font-size: 13px;&quot;&gt;&lt;font color=&quot;#0f0f0f&quot; style=&quot;font-size: 13px;&quot;&gt;: &lt;/font&gt;&lt;font color=&quot;#009900&quot; style=&quot;font-size: 13px;&quot;&gt;&quot;String&quot;&lt;/font&gt;&lt;font color=&quot;#0f0f0f&quot; style=&quot;font-size: 13px;&quot;&gt;,&lt;/font&gt;&lt;br style=&quot;font-size: 13px;&quot;&gt;&lt;span style=&quot;color: rgb(15, 15, 15); font-size: 13px;&quot;&gt;&lt;span style=&quot;white-space: pre;&quot;&gt;&amp;nbsp;&amp;nbsp;&amp;nbsp;&amp;nbsp;&lt;span style=&quot;white-space: pre;&quot;&gt;&#x9;&lt;/span&gt;&lt;/span&gt;&lt;/span&gt;&lt;font color=&quot;#ff0000&quot; style=&quot;font-size: 13px;&quot;&gt;&quot;fabricante&quot;&lt;/font&gt;&lt;/font&gt;&lt;font face=&quot;Comic Sans MS&quot; style=&quot;font-size: 13px;&quot;&gt;&lt;font color=&quot;#0f0f0f&quot; style=&quot;font-size: 13px;&quot;&gt; : &lt;/font&gt;&lt;font color=&quot;#009900&quot; style=&quot;font-size: 13px;&quot;&gt;&quot;String&quot;&lt;/font&gt;&lt;font color=&quot;#0f0f0f&quot; style=&quot;font-size: 13px;&quot;&gt;,&lt;/font&gt;&lt;br style=&quot;font-size: 13px;&quot;&gt;&lt;span style=&quot;color: rgb(15, 15, 15); font-size: 13px;&quot;&gt;&lt;span style=&quot;white-space: pre;&quot;&gt;&amp;nbsp;&amp;nbsp;&amp;nbsp;&amp;nbsp;&lt;span style=&quot;white-space: pre;&quot;&gt;&#x9;&lt;/span&gt;&lt;/span&gt;&lt;/span&gt;&lt;font color=&quot;#ff0000&quot; style=&quot;font-size: 13px;&quot;&gt;&quot;modelo&quot;&lt;/font&gt;&lt;/font&gt;&lt;font face=&quot;Comic Sans MS&quot; style=&quot;font-size: 13px;&quot;&gt;&lt;font color=&quot;#0f0f0f&quot; style=&quot;font-size: 13px;&quot;&gt; : &lt;/font&gt;&lt;font color=&quot;#009900&quot; style=&quot;font-size: 13px;&quot;&gt;&quot;String&quot;&lt;/font&gt;&lt;font color=&quot;#0f0f0f&quot; style=&quot;font-size: 13px;&quot;&gt;,&lt;/font&gt;&lt;br style=&quot;font-size: 13px;&quot;&gt;&lt;font color=&quot;#ff0000&quot; style=&quot;font-size: 13px;&quot;&gt;&amp;nbsp; &amp;nbsp; &lt;span style=&quot;white-space: pre;&quot;&gt;&#x9;&lt;/span&gt;&quot;active&quot;&lt;/font&gt;&lt;font color=&quot;#0f0f0f&quot; style=&quot;font-size: 13px;&quot;&gt; : &lt;/font&gt;&lt;font color=&quot;#009900&quot; style=&quot;font-size: 13px;&quot;&gt;Boolean&lt;/font&gt;&lt;font color=&quot;#0f0f0f&quot; style=&quot;font-size: 13px;&quot;&gt;,&lt;br style=&quot;font-size: 13px;&quot;&gt;&lt;/font&gt;&lt;font color=&quot;#ff0000&quot; style=&quot;font-size: 13px;&quot;&gt;&amp;nbsp; &amp;nbsp; &lt;span style=&quot;white-space: pre;&quot;&gt;&#x9;&lt;/span&gt;&quot;telefono&quot;&lt;/font&gt;&lt;font color=&quot;#0f0f0f&quot; style=&quot;font-size: 13px;&quot;&gt; : &lt;/font&gt;&lt;font color=&quot;#009900&quot; style=&quot;font-size: 13px;&quot;&gt;&quot;String&quot;&lt;/font&gt;&lt;font color=&quot;#0f0f0f&quot; style=&quot;font-size: 13px;&quot;&gt;,&lt;br style=&quot;font-size: 13px;&quot;&gt;&lt;/font&gt;&lt;font color=&quot;#ff0000&quot; style=&quot;font-size: 13px;&quot;&gt;&amp;nbsp; &amp;nbsp; &lt;span style=&quot;white-space: pre;&quot;&gt;&#x9;&lt;/span&gt;&quot;f_instalacion&quot;&lt;/font&gt;&lt;font color=&quot;#0f0f0f&quot; style=&quot;font-size: 13px;&quot;&gt; : &lt;/font&gt;&lt;font color=&quot;#009900&quot; style=&quot;font-size: 13px;&quot;&gt;new Date(&quot;DD-MM-YY&quot;),&lt;/font&gt;&lt;font style=&quot;font-size: 13px;&quot;&gt;&lt;font color=&quot;#0f0f0f&quot;&gt;&lt;span style=&quot;white-space-collapse: preserve;&quot;&gt;&lt;br&gt;&lt;/span&gt;&lt;/font&gt;&lt;/font&gt;&lt;/font&gt;&lt;font style=&quot;border-color: var(--border-color); font-family: &amp;quot;Comic Sans MS&amp;quot;;&quot; color=&quot;#ff0000&quot;&gt;&amp;nbsp; &amp;nbsp; &lt;span style=&quot;white-space: pre;&quot;&gt;&#x9;&lt;/span&gt;&quot;f_revision&quot;&lt;/font&gt;&lt;font style=&quot;border-color: var(--border-color); font-family: &amp;quot;Comic Sans MS&amp;quot;;&quot; color=&quot;#0f0f0f&quot;&gt; : &lt;/font&gt;&lt;font style=&quot;border-color: var(--border-color); font-family: &amp;quot;Comic Sans MS&amp;quot;;&quot; color=&quot;#009900&quot;&gt;new Date(&quot;DD-MM-YY&quot;)&lt;br&gt;&lt;/font&gt;&lt;font face=&quot;Comic Sans MS&quot; style=&quot;font-size: 13px;&quot;&gt;&lt;font color=&quot;#0f0f0f&quot; style=&quot;font-size: 13px;&quot;&gt;}&lt;/font&gt;&lt;/font&gt;" style="align=left;strokeColor=none;fillColor=none;spacingLeft=4;fontSize=13;verticalAlign=top;resizable=0;rotatable=0;part=1;html=1;" vertex="1" parent="JJ6pGFsBF1nlRodCM9yX-36">
          <mxGeometry y="30" width="291" height="190" as="geometry" />
        </mxCell>
        <mxCell id="JJ6pGFsBF1nlRodCM9yX-39" value="&lt;font face=&quot;Comic Sans MS&quot;&gt;&lt;b&gt;Medicion_inf&lt;/b&gt;&lt;/font&gt;" style="swimlane;childLayout=stackLayout;horizontal=1;startSize=30;horizontalStack=0;rounded=1;fontSize=13;fontStyle=0;strokeWidth=2;resizeParent=0;resizeLast=1;shadow=0;dashed=0;align=center;arcSize=4;whiteSpace=wrap;html=1;labelBackgroundColor=none;fillColor=#86360A;fontColor=#0F0F0F;strokeColor=#0F0F0F;swimlaneLine=1;gradientColor=none;swimlaneFillColor=#FFFFFF;" vertex="1" parent="1">
          <mxGeometry x="60" y="1595" width="249" height="125" as="geometry" />
        </mxCell>
        <mxCell id="JJ6pGFsBF1nlRodCM9yX-40" value="&lt;font face=&quot;Comic Sans MS&quot; style=&quot;font-size: 13px;&quot;&gt;&lt;font color=&quot;#0f0f0f&quot; style=&quot;font-size: 13px;&quot;&gt;{&lt;/font&gt;&lt;br style=&quot;font-size: 13px;&quot;&gt;&lt;span style=&quot;font-size: 13px;&quot;&gt;&lt;span style=&quot;color: rgb(15, 15, 15); font-size: 13px;&quot;&gt;&lt;span style=&quot;white-space: pre;&quot;&gt;&amp;nbsp;&amp;nbsp;&amp;nbsp;&amp;nbsp;&lt;span style=&quot;white-space: pre;&quot;&gt;&#x9;&lt;/span&gt;&lt;/span&gt;&lt;/span&gt;&lt;font color=&quot;#ff0000&quot; style=&quot;font-size: 13px;&quot;&gt;&quot;id_medicion&lt;/font&gt;&lt;/span&gt;&lt;font color=&quot;#ff0000&quot; style=&quot;font-size: 13px;&quot;&gt;&quot;&lt;/font&gt;&lt;/font&gt;&lt;font face=&quot;Comic Sans MS&quot; style=&quot;font-size: 13px;&quot;&gt;&lt;font color=&quot;#0f0f0f&quot; style=&quot;font-size: 13px;&quot;&gt; : &lt;/font&gt;&lt;font color=&quot;#009900&quot; style=&quot;font-size: 13px;&quot;&gt;int&lt;/font&gt;&lt;font color=&quot;#0f0f0f&quot; style=&quot;font-size: 13px;&quot;&gt;,&lt;br&gt;&lt;/font&gt;&lt;/font&gt;&lt;font style=&quot;border-color: var(--border-color);&quot; face=&quot;Comic Sans MS&quot;&gt;&lt;font style=&quot;border-color: var(--border-color);&quot; color=&quot;#ff0000&quot;&gt;&lt;span style=&quot;white-space: pre;&quot;&gt;&#x9;&lt;/span&gt;&quot;fecha&lt;/font&gt;&lt;font style=&quot;border-color: var(--border-color);&quot; color=&quot;#ff0000&quot;&gt;&quot;&lt;/font&gt;&lt;/font&gt;&lt;font style=&quot;border-color: var(--border-color);&quot; face=&quot;Comic Sans MS&quot;&gt;&lt;font style=&quot;border-color: var(--border-color);&quot; color=&quot;#0f0f0f&quot;&gt;&amp;nbsp;:&amp;nbsp;&lt;/font&gt;&lt;font style=&quot;border-color: var(--border-color);&quot; color=&quot;#009900&quot;&gt;new Date(&quot;DD-MM-YY&quot;)&lt;/font&gt;&lt;font style=&quot;border-color: var(--border-color);&quot; color=&quot;#0f0f0f&quot;&gt;,&lt;/font&gt;&lt;br style=&quot;border-color: var(--border-color);&quot;&gt;&lt;/font&gt;&lt;font face=&quot;Comic Sans MS&quot; style=&quot;font-size: 13px;&quot;&gt;&lt;span style=&quot;color: rgb(15, 15, 15); font-size: 13px;&quot;&gt;&lt;span style=&quot;white-space: pre;&quot;&gt;&amp;nbsp;&amp;nbsp;&amp;nbsp;&amp;nbsp;&lt;span style=&quot;white-space: pre;&quot;&gt;&#x9;&lt;/span&gt;&lt;/span&gt;&lt;/span&gt;&lt;font color=&quot;#ff0000&quot; style=&quot;font-size: 13px;&quot;&gt;&quot;contaminacion&quot;&lt;/font&gt;&lt;/font&gt;&lt;font face=&quot;Comic Sans MS&quot; style=&quot;font-size: 13px;&quot;&gt;&lt;font color=&quot;#0f0f0f&quot; style=&quot;font-size: 13px;&quot;&gt; : &lt;/font&gt;&lt;font color=&quot;#009900&quot; style=&quot;font-size: 13px;&quot;&gt;Array&lt;/font&gt;&lt;/font&gt;&lt;font face=&quot;Comic Sans MS&quot; style=&quot;font-size: 13px;&quot;&gt;&lt;br style=&quot;font-size: 13px;&quot;&gt;&lt;font color=&quot;#0f0f0f&quot; style=&quot;font-size: 13px;&quot;&gt;}&lt;/font&gt;&lt;/font&gt;" style="align=left;strokeColor=none;fillColor=none;spacingLeft=4;fontSize=13;verticalAlign=top;resizable=0;rotatable=0;part=1;html=1;" vertex="1" parent="JJ6pGFsBF1nlRodCM9yX-39">
          <mxGeometry y="30" width="249" height="95" as="geometry" />
        </mxCell>
        <mxCell id="JJ6pGFsBF1nlRodCM9yX-41" value="" style="endArrow=classic;html=1;rounded=0;elbow=vertical;edgeStyle=orthogonalEdgeStyle;curved=1;startArrow=classic;startFill=0;strokeColor=#E6D0DE;fillColor=#cdeb8b;shadow=0;strokeWidth=2;exitX=1.005;exitY=0.827;exitDx=0;exitDy=0;exitPerimeter=0;entryX=0.009;entryY=0.167;entryDx=0;entryDy=0;entryPerimeter=0;" edge="1" parent="1" target="JJ6pGFsBF1nlRodCM9yX-38">
          <mxGeometry width="50" height="50" relative="1" as="geometry">
            <mxPoint x="10" y="1457" as="sourcePoint" />
            <mxPoint x="80" y="1430" as="targetPoint" />
          </mxGeometry>
        </mxCell>
        <mxCell id="JJ6pGFsBF1nlRodCM9yX-42" value="" style="endArrow=classic;html=1;rounded=0;elbow=vertical;edgeStyle=orthogonalEdgeStyle;curved=1;startArrow=classic;startFill=0;strokeColor=#E6D0DE;fillColor=#cdeb8b;shadow=0;strokeWidth=2;exitX=1.007;exitY=0.816;exitDx=0;exitDy=0;exitPerimeter=0;entryX=-0.001;entryY=0.349;entryDx=0;entryDy=0;entryPerimeter=0;" edge="1" parent="1" source="JJ6pGFsBF1nlRodCM9yX-32" target="JJ6pGFsBF1nlRodCM9yX-40">
          <mxGeometry width="50" height="50" relative="1" as="geometry">
            <mxPoint x="20" y="1467" as="sourcePoint" />
            <mxPoint x="73" y="1422" as="targetPoint" />
          </mxGeometry>
        </mxCell>
        <mxCell id="JJ6pGFsBF1nlRodCM9yX-43" value="&lt;font face=&quot;Comic Sans MS&quot;&gt;&lt;b&gt;Contaminacion&lt;/b&gt;&lt;/font&gt;" style="swimlane;childLayout=stackLayout;horizontal=1;startSize=30;horizontalStack=0;rounded=1;fontSize=13;fontStyle=0;strokeWidth=2;resizeParent=0;resizeLast=1;shadow=0;dashed=0;align=center;arcSize=4;whiteSpace=wrap;html=1;labelBackgroundColor=none;fillColor=#86360A;fontColor=#0F0F0F;strokeColor=#0F0F0F;swimlaneLine=1;gradientColor=none;swimlaneFillColor=#FFFFFF;" vertex="1" parent="1">
          <mxGeometry x="420" y="1410" width="200" height="140" as="geometry" />
        </mxCell>
        <mxCell id="JJ6pGFsBF1nlRodCM9yX-44" value="&lt;font face=&quot;Comic Sans MS&quot; style=&quot;font-size: 13px;&quot;&gt;&lt;font color=&quot;#0f0f0f&quot; style=&quot;font-size: 13px;&quot;&gt;{&lt;/font&gt;&lt;br style=&quot;font-size: 13px;&quot;&gt;&lt;span style=&quot;white-space: pre; font-size: 13px;&quot;&gt;&lt;span style=&quot;color: rgb(15, 15, 15); white-space: pre; font-size: 13px;&quot;&gt;&#x9;&lt;/span&gt;&lt;font color=&quot;#ff0000&quot; style=&quot;font-size: 13px;&quot;&gt;&quot;id_contaminacion&lt;/font&gt;&lt;/span&gt;&lt;font color=&quot;#ff0000&quot; style=&quot;font-size: 13px;&quot;&gt;&quot;&lt;/font&gt;&lt;/font&gt;&lt;font face=&quot;Comic Sans MS&quot; style=&quot;font-size: 13px;&quot;&gt;&lt;font color=&quot;#0f0f0f&quot; style=&quot;font-size: 13px;&quot;&gt; : &lt;/font&gt;&lt;font color=&quot;#009900&quot; style=&quot;font-size: 13px;&quot;&gt;int&lt;/font&gt;&lt;font color=&quot;#0f0f0f&quot; style=&quot;font-size: 13px;&quot;&gt;,&lt;/font&gt;&lt;br style=&quot;font-size: 13px;&quot;&gt;&lt;span style=&quot;color: rgb(15, 15, 15); white-space: pre; font-size: 13px;&quot;&gt;&#x9;&lt;/span&gt;&lt;font color=&quot;#ff0000&quot; style=&quot;font-size: 13px;&quot;&gt;&quot;nombre&quot;&lt;/font&gt;&lt;/font&gt;&lt;font face=&quot;Comic Sans MS&quot; style=&quot;font-size: 13px;&quot;&gt;&lt;font color=&quot;#0f0f0f&quot; style=&quot;font-size: 13px;&quot;&gt; : &lt;/font&gt;&lt;font color=&quot;#009900&quot; style=&quot;font-size: 13px;&quot;&gt;&quot;String&quot;&lt;/font&gt;&lt;font color=&quot;#0f0f0f&quot; style=&quot;font-size: 13px;&quot;&gt;,&lt;/font&gt;&lt;br style=&quot;font-size: 13px;&quot;&gt;&lt;span style=&quot;color: rgb(15, 15, 15); white-space: pre; font-size: 13px;&quot;&gt;&#x9;&lt;/span&gt;&lt;font color=&quot;#ff0000&quot; style=&quot;font-size: 13px;&quot;&gt;&quot;descripcion&quot; &lt;/font&gt;&lt;/font&gt;&lt;font face=&quot;Comic Sans MS&quot; style=&quot;font-size: 13px;&quot;&gt;&lt;font color=&quot;#0f0f0f&quot; style=&quot;font-size: 13px;&quot;&gt;: &lt;/font&gt;&lt;font color=&quot;#009900&quot; style=&quot;font-size: 13px;&quot;&gt;&quot;String&quot;&lt;/font&gt;&lt;font color=&quot;#0f0f0f&quot; style=&quot;font-size: 13px;&quot;&gt;,&lt;/font&gt;&lt;br style=&quot;font-size: 13px;&quot;&gt;&lt;span style=&quot;color: rgb(15, 15, 15); white-space: pre; font-size: 13px;&quot;&gt;&#x9;&lt;/span&gt;&lt;font color=&quot;#ff0000&quot; style=&quot;font-size: 13px;&quot;&gt;&quot;alcance&quot;&lt;/font&gt;&lt;/font&gt;&lt;font face=&quot;Comic Sans MS&quot; style=&quot;font-size: 13px;&quot;&gt;&lt;font color=&quot;#0f0f0f&quot; style=&quot;font-size: 13px;&quot;&gt; : &lt;/font&gt;&lt;font color=&quot;#009900&quot; style=&quot;font-size: 13px;&quot;&gt;double&lt;/font&gt;&lt;/font&gt;&lt;font face=&quot;Comic Sans MS&quot; style=&quot;font-size: 13px;&quot;&gt;&lt;br style=&quot;font-size: 13px;&quot;&gt;&lt;font color=&quot;#0f0f0f&quot; style=&quot;font-size: 13px;&quot;&gt;}&lt;/font&gt;&lt;/font&gt;" style="align=left;strokeColor=none;fillColor=none;spacingLeft=4;fontSize=13;verticalAlign=top;resizable=0;rotatable=0;part=1;html=1;" vertex="1" parent="JJ6pGFsBF1nlRodCM9yX-43">
          <mxGeometry y="30" width="200" height="110" as="geometry" />
        </mxCell>
        <mxCell id="JJ6pGFsBF1nlRodCM9yX-45" value="" style="endArrow=classic;html=1;rounded=0;elbow=vertical;edgeStyle=orthogonalEdgeStyle;curved=1;startArrow=classic;startFill=0;strokeColor=#E6D0DE;fillColor=#cdeb8b;shadow=0;strokeWidth=2;exitX=1.01;exitY=0.644;exitDx=0;exitDy=0;exitPerimeter=0;entryX=0;entryY=0.25;entryDx=0;entryDy=0;" edge="1" parent="1" source="JJ6pGFsBF1nlRodCM9yX-40" target="JJ6pGFsBF1nlRodCM9yX-44">
          <mxGeometry width="50" height="50" relative="1" as="geometry">
            <mxPoint x="22" y="1491" as="sourcePoint" />
            <mxPoint x="70" y="1668" as="targetPoint" />
          </mxGeometry>
        </mxCell>
        <mxCell id="JJ6pGFsBF1nlRodCM9yX-47" value="&lt;font face=&quot;Comic Sans MS&quot; style=&quot;font-size: 13px;&quot;&gt;&lt;b style=&quot;font-size: 13px;&quot;&gt;Region_Sierra&lt;/b&gt;&lt;/font&gt;" style="swimlane;childLayout=stackLayout;horizontal=1;startSize=30;horizontalStack=0;rounded=1;fontSize=13;fontStyle=0;strokeWidth=2;resizeParent=0;resizeLast=1;shadow=0;dashed=0;align=center;arcSize=4;whiteSpace=wrap;html=1;labelBackgroundColor=none;fillColor=#007E3F;fontColor=#0F0F0F;strokeColor=#0F0F0F;swimlaneLine=1;gradientColor=none;swimlaneFillColor=#FFFFFF;" vertex="1" parent="1">
          <mxGeometry x="520" y="610" width="280" height="200" as="geometry" />
        </mxCell>
        <mxCell id="JJ6pGFsBF1nlRodCM9yX-48" value="&lt;font face=&quot;Comic Sans MS&quot; style=&quot;font-size: 13px;&quot;&gt;&lt;font color=&quot;#0f0f0f&quot; style=&quot;font-size: 13px;&quot;&gt;{&lt;/font&gt;&lt;br style=&quot;font-size: 13px;&quot;&gt;&lt;span style=&quot;white-space: pre; font-size: 13px;&quot;&gt;&lt;span style=&quot;color: rgb(15, 15, 15); white-space: pre; font-size: 13px;&quot;&gt;&#x9;&lt;/span&gt;&lt;font color=&quot;#ff0000&quot; style=&quot;font-size: 13px;&quot;&gt;&quot;&lt;/font&gt;&lt;/span&gt;&lt;font color=&quot;#ff0000&quot; style=&quot;font-size: 13px;&quot;&gt;id_region_sierra&quot;&lt;/font&gt;&lt;/font&gt;&lt;font face=&quot;Comic Sans MS&quot; style=&quot;font-size: 13px;&quot;&gt;&lt;font color=&quot;#0f0f0f&quot; style=&quot;font-size: 13px;&quot;&gt; : &lt;/font&gt;&lt;font color=&quot;#009900&quot; style=&quot;font-size: 13px;&quot;&gt;int&lt;/font&gt;&lt;font color=&quot;#0f0f0f&quot; style=&quot;font-size: 13px;&quot;&gt;,&lt;/font&gt;&lt;br style=&quot;font-size: 13px;&quot;&gt;&lt;span style=&quot;color: rgb(15, 15, 15); white-space: pre; font-size: 13px;&quot;&gt;&#x9;&lt;/span&gt;&lt;font color=&quot;#ff0000&quot; style=&quot;font-size: 13px;&quot;&gt;&quot;nombre_departamento&quot;&lt;/font&gt;&lt;/font&gt;&lt;font face=&quot;Comic Sans MS&quot; style=&quot;font-size: 13px;&quot;&gt;&lt;font color=&quot;#0f0f0f&quot; style=&quot;font-size: 13px;&quot;&gt; : &lt;/font&gt;&lt;font color=&quot;#009900&quot; style=&quot;font-size: 13px;&quot;&gt;&quot;String&quot;&lt;/font&gt;&lt;font color=&quot;#0f0f0f&quot; style=&quot;font-size: 13px;&quot;&gt;,&lt;/font&gt;&lt;br style=&quot;font-size: 13px;&quot;&gt;&lt;span style=&quot;color: rgb(15, 15, 15); white-space: pre; font-size: 13px;&quot;&gt;&#x9;&lt;/span&gt;&lt;font color=&quot;#ff0000&quot; style=&quot;font-size: 13px;&quot;&gt;&quot;Superficie&quot; &lt;/font&gt;&lt;/font&gt;&lt;font face=&quot;Comic Sans MS&quot; style=&quot;font-size: 13px;&quot;&gt;&lt;font color=&quot;#0f0f0f&quot; style=&quot;font-size: 13px;&quot;&gt;: &lt;/font&gt;&lt;font color=&quot;#009900&quot; style=&quot;font-size: 13px;&quot;&gt;double&lt;/font&gt;&lt;font color=&quot;#0f0f0f&quot; style=&quot;font-size: 13px;&quot;&gt;,&lt;/font&gt;&lt;br style=&quot;font-size: 13px;&quot;&gt;&lt;span style=&quot;color: rgb(15, 15, 15); white-space: pre; font-size: 13px;&quot;&gt;&#x9;&lt;/span&gt;&lt;font color=&quot;#ff0000&quot; style=&quot;font-size: 13px;&quot;&gt;&quot;hora_local&quot;&lt;/font&gt;&lt;/font&gt;&lt;font face=&quot;Comic Sans MS&quot; style=&quot;font-size: 13px;&quot;&gt;&lt;font color=&quot;#0f0f0f&quot; style=&quot;font-size: 13px;&quot;&gt; : &lt;/font&gt;&lt;font color=&quot;#009900&quot; style=&quot;font-size: 13px;&quot;&gt;new Date(&quot;DD-MM-YY&quot;)&lt;/font&gt;&lt;font color=&quot;#0f0f0f&quot; style=&quot;font-size: 13px;&quot;&gt;,&lt;/font&gt;&lt;br style=&quot;font-size: 13px;&quot;&gt;&lt;span style=&quot;color: rgb(15, 15, 15); white-space: pre; font-size: 13px;&quot;&gt;&#x9;&lt;/span&gt;&lt;font color=&quot;#ff0000&quot; style=&quot;font-size: 13px;&quot;&gt;&quot;poblacion&quot;&lt;/font&gt;&lt;/font&gt;&lt;font face=&quot;Comic Sans MS&quot; style=&quot;font-size: 13px;&quot;&gt;&lt;font color=&quot;#0f0f0f&quot; style=&quot;font-size: 13px;&quot;&gt; : &lt;/font&gt;&lt;font color=&quot;#009900&quot; style=&quot;font-size: 13px;&quot;&gt;int&lt;/font&gt;&lt;font color=&quot;#0f0f0f&quot; style=&quot;font-size: 13px;&quot;&gt;,&lt;/font&gt;&lt;br style=&quot;font-size: 13px;&quot;&gt;&lt;span style=&quot;white-space: pre; font-size: 13px;&quot;&gt;&lt;span style=&quot;color: rgb(15, 15, 15); white-space: pre; font-size: 13px;&quot;&gt;&#x9;&lt;/span&gt;&lt;font color=&quot;#ff0000&quot; style=&quot;font-size: 13px;&quot;&gt;&quot;coordenadas&quot;&lt;/font&gt;&lt;font color=&quot;#0f0f0f&quot; style=&quot;font-size: 13px;&quot;&gt; : &lt;/font&gt;&lt;font color=&quot;#009900&quot; style=&quot;font-size: 13px;&quot;&gt;&quot;String&quot;&lt;/font&gt;&lt;font color=&quot;#0f0f0f&quot; style=&quot;font-size: 13px;&quot;&gt;,&lt;br style=&quot;font-size: 13px;&quot;&gt;&lt;/font&gt;&lt;span style=&quot;color: rgb(15, 15, 15); white-space: pre; font-size: 13px;&quot;&gt;&#x9;&lt;/span&gt;&lt;font color=&quot;#ff0000&quot; style=&quot;font-size: 13px;&quot;&gt;&quot;informe_tiempo&quot;&lt;/font&gt;&lt;font color=&quot;#0f0f0f&quot; style=&quot;font-size: 13px;&quot;&gt; : &lt;/font&gt;&lt;font color=&quot;#009900&quot; style=&quot;font-size: 13px;&quot;&gt;{}&lt;/font&gt;&lt;font color=&quot;#0f0f0f&quot; style=&quot;font-size: 13px;&quot;&gt;,&lt;br style=&quot;font-size: 13px;&quot;&gt;&lt;/font&gt;&lt;span style=&quot;color: rgb(15, 15, 15); white-space: pre; font-size: 13px;&quot;&gt;&#x9;&lt;/span&gt;&lt;font color=&quot;#ff0000&quot; style=&quot;font-size: 13px;&quot;&gt;&quot;estacion&quot;&lt;/font&gt;&lt;font color=&quot;#0f0f0f&quot; style=&quot;font-size: 13px;&quot;&gt; : &lt;/font&gt;&lt;font color=&quot;#009900&quot; style=&quot;font-size: 13px;&quot;&gt;{}&#x9;&lt;/font&gt;&lt;/span&gt;&lt;br style=&quot;font-size: 13px;&quot;&gt;&lt;font color=&quot;#0f0f0f&quot; style=&quot;font-size: 13px;&quot;&gt;}&lt;/font&gt;&lt;/font&gt;" style="align=left;strokeColor=none;fillColor=none;spacingLeft=4;fontSize=13;verticalAlign=top;resizable=0;rotatable=0;part=1;html=1;" vertex="1" parent="JJ6pGFsBF1nlRodCM9yX-47">
          <mxGeometry y="30" width="280" height="170" as="geometry" />
        </mxCell>
        <mxCell id="JJ6pGFsBF1nlRodCM9yX-49" value="&lt;font face=&quot;Comic Sans MS&quot;&gt;&lt;b&gt;Informe_Tiempo&lt;/b&gt;&lt;/font&gt;" style="swimlane;childLayout=stackLayout;horizontal=1;startSize=30;horizontalStack=0;rounded=1;fontSize=13;fontStyle=0;strokeWidth=2;resizeParent=0;resizeLast=1;shadow=0;dashed=0;align=center;arcSize=4;whiteSpace=wrap;html=1;labelBackgroundColor=none;fillColor=#007E3F;fontColor=#0F0F0F;strokeColor=#0F0F0F;swimlaneLine=1;gradientColor=none;swimlaneFillColor=#FFFFFF;" vertex="1" parent="1">
          <mxGeometry x="870" y="530" width="200" height="140" as="geometry" />
        </mxCell>
        <mxCell id="JJ6pGFsBF1nlRodCM9yX-50" value="&lt;font face=&quot;Comic Sans MS&quot; style=&quot;font-size: 13px;&quot;&gt;&lt;font color=&quot;#0f0f0f&quot; style=&quot;font-size: 13px;&quot;&gt;{&lt;/font&gt;&lt;br style=&quot;font-size: 13px;&quot;&gt;&lt;span style=&quot;white-space: pre; font-size: 13px;&quot;&gt;&lt;span style=&quot;color: rgb(15, 15, 15); white-space: pre; font-size: 13px;&quot;&gt;&#x9;&lt;/span&gt;&lt;font color=&quot;#ff0000&quot; style=&quot;font-size: 13px;&quot;&gt;&quot;&lt;/font&gt;&lt;/span&gt;&lt;font color=&quot;#ff0000&quot; style=&quot;font-size: 13px;&quot;&gt;id_inf_tiempo&quot;&lt;/font&gt;&lt;/font&gt;&lt;font face=&quot;Comic Sans MS&quot; style=&quot;font-size: 13px;&quot;&gt;&lt;font color=&quot;#0f0f0f&quot; style=&quot;font-size: 13px;&quot;&gt; : &lt;/font&gt;&lt;font color=&quot;#009900&quot; style=&quot;font-size: 13px;&quot;&gt;int&lt;/font&gt;&lt;font color=&quot;#0f0f0f&quot; style=&quot;font-size: 13px;&quot;&gt;,&lt;/font&gt;&lt;br style=&quot;font-size: 13px;&quot;&gt;&lt;span style=&quot;color: rgb(15, 15, 15); white-space: pre; font-size: 13px;&quot;&gt;&#x9;&lt;/span&gt;&lt;font color=&quot;#ff0000&quot; style=&quot;font-size: 13px;&quot;&gt;&quot;temperatura&quot;&lt;/font&gt;&lt;/font&gt;&lt;font face=&quot;Comic Sans MS&quot; style=&quot;font-size: 13px;&quot;&gt;&lt;font color=&quot;#0f0f0f&quot; style=&quot;font-size: 13px;&quot;&gt; : &lt;/font&gt;&lt;font color=&quot;#009900&quot; style=&quot;font-size: 13px;&quot;&gt;double&lt;/font&gt;&lt;font color=&quot;#0f0f0f&quot; style=&quot;font-size: 13px;&quot;&gt;,&lt;/font&gt;&lt;br style=&quot;font-size: 13px;&quot;&gt;&lt;span style=&quot;color: rgb(15, 15, 15); white-space: pre; font-size: 13px;&quot;&gt;&#x9;&lt;/span&gt;&lt;font color=&quot;#ff0000&quot; style=&quot;font-size: 13px;&quot;&gt;&quot;elevacion&quot; &lt;/font&gt;&lt;/font&gt;&lt;font face=&quot;Comic Sans MS&quot; style=&quot;font-size: 13px;&quot;&gt;&lt;font color=&quot;#0f0f0f&quot; style=&quot;font-size: 13px;&quot;&gt;: &lt;/font&gt;&lt;font color=&quot;#009900&quot; style=&quot;font-size: 13px;&quot;&gt;double&lt;/font&gt;&lt;font color=&quot;#0f0f0f&quot; style=&quot;font-size: 13px;&quot;&gt;,&lt;/font&gt;&lt;br style=&quot;font-size: 13px;&quot;&gt;&lt;span style=&quot;color: rgb(15, 15, 15); white-space: pre; font-size: 13px;&quot;&gt;&#x9;&lt;/span&gt;&lt;font color=&quot;#ff0000&quot; style=&quot;font-size: 13px;&quot;&gt;&quot;clima&quot;&lt;/font&gt;&lt;/font&gt;&lt;font face=&quot;Comic Sans MS&quot; style=&quot;font-size: 13px;&quot;&gt;&lt;font color=&quot;#0f0f0f&quot; style=&quot;font-size: 13px;&quot;&gt; : &lt;/font&gt;&lt;font color=&quot;#009900&quot; style=&quot;font-size: 13px;&quot;&gt;&quot;String&quot;&lt;/font&gt;&lt;/font&gt;&lt;font face=&quot;Comic Sans MS&quot; style=&quot;font-size: 13px;&quot;&gt;&lt;span style=&quot;white-space: pre; font-size: 13px;&quot;&gt;&lt;font color=&quot;#009900&quot; style=&quot;font-size: 13px;&quot;&gt;&#x9;&lt;/font&gt;&lt;/span&gt;&lt;br style=&quot;font-size: 13px;&quot;&gt;&lt;font color=&quot;#0f0f0f&quot; style=&quot;font-size: 13px;&quot;&gt;}&lt;/font&gt;&lt;/font&gt;" style="align=left;strokeColor=none;fillColor=none;spacingLeft=4;fontSize=13;verticalAlign=top;resizable=0;rotatable=0;part=1;html=1;" vertex="1" parent="JJ6pGFsBF1nlRodCM9yX-49">
          <mxGeometry y="30" width="200" height="110" as="geometry" />
        </mxCell>
        <mxCell id="JJ6pGFsBF1nlRodCM9yX-51" value="" style="endArrow=classic;html=1;rounded=0;elbow=vertical;edgeStyle=orthogonalEdgeStyle;curved=1;startArrow=classic;startFill=0;strokeColor=#E6D0DE;fillColor=#cdeb8b;shadow=0;strokeWidth=2;entryX=0.011;entryY=0.306;entryDx=0;entryDy=0;entryPerimeter=0;" edge="1" parent="1" target="JJ6pGFsBF1nlRodCM9yX-50">
          <mxGeometry width="50" height="50" relative="1" as="geometry">
            <mxPoint x="800" y="660" as="sourcePoint" />
            <mxPoint x="870" y="470" as="targetPoint" />
          </mxGeometry>
        </mxCell>
        <mxCell id="JJ6pGFsBF1nlRodCM9yX-52" value="&lt;font face=&quot;Comic Sans MS&quot;&gt;&lt;b&gt;Estacion&lt;/b&gt;&lt;/font&gt;" style="swimlane;childLayout=stackLayout;horizontal=1;startSize=30;horizontalStack=0;rounded=1;fontSize=13;fontStyle=0;strokeWidth=2;resizeParent=0;resizeLast=1;shadow=0;dashed=0;align=center;arcSize=4;whiteSpace=wrap;html=1;labelBackgroundColor=none;fillColor=#007E3F;fontColor=#0F0F0F;strokeColor=#0F0F0F;swimlaneLine=1;gradientColor=none;swimlaneFillColor=#FFFFFF;" vertex="1" parent="1">
          <mxGeometry x="870" y="690" width="220" height="190" as="geometry" />
        </mxCell>
        <mxCell id="JJ6pGFsBF1nlRodCM9yX-53" value="&lt;font face=&quot;Comic Sans MS&quot; style=&quot;font-size: 13px;&quot;&gt;&lt;font color=&quot;#0f0f0f&quot; style=&quot;font-size: 13px;&quot;&gt;{&lt;/font&gt;&lt;br style=&quot;font-size: 13px;&quot;&gt;&lt;span style=&quot;font-size: 13px;&quot;&gt;&lt;span style=&quot;color: rgb(15, 15, 15); font-size: 13px;&quot;&gt;&lt;span style=&quot;white-space: pre;&quot;&gt;&amp;nbsp;&amp;nbsp;&amp;nbsp;&amp;nbsp;&lt;/span&gt;&lt;/span&gt;&lt;font color=&quot;#ff0000&quot; style=&quot;font-size: 13px;&quot;&gt;&quot;&lt;/font&gt;&lt;/span&gt;&lt;font color=&quot;#ff0000&quot; style=&quot;font-size: 13px;&quot;&gt;id_estacion&quot;&lt;/font&gt;&lt;/font&gt;&lt;font face=&quot;Comic Sans MS&quot; style=&quot;font-size: 13px;&quot;&gt;&lt;font color=&quot;#0f0f0f&quot; style=&quot;font-size: 13px;&quot;&gt; : &lt;/font&gt;&lt;font color=&quot;#009900&quot; style=&quot;font-size: 13px;&quot;&gt;int&lt;/font&gt;&lt;font color=&quot;#0f0f0f&quot; style=&quot;font-size: 13px;&quot;&gt;,&lt;/font&gt;&lt;br style=&quot;font-size: 13px;&quot;&gt;&lt;span style=&quot;color: rgb(15, 15, 15); font-size: 13px;&quot;&gt;&lt;span style=&quot;white-space: pre;&quot;&gt;&amp;nbsp;&amp;nbsp;&amp;nbsp;&amp;nbsp;&lt;/span&gt;&lt;/span&gt;&lt;font color=&quot;#ff0000&quot; style=&quot;font-size: 13px;&quot;&gt;&quot;nombre_estacion&quot;&lt;/font&gt;&lt;/font&gt;&lt;font face=&quot;Comic Sans MS&quot; style=&quot;font-size: 13px;&quot;&gt;&lt;font color=&quot;#0f0f0f&quot; style=&quot;font-size: 13px;&quot;&gt; : &lt;/font&gt;&lt;font color=&quot;#009900&quot; style=&quot;font-size: 13px;&quot;&gt;&quot;String&quot;&lt;/font&gt;&lt;font color=&quot;#0f0f0f&quot; style=&quot;font-size: 13px;&quot;&gt;,&lt;/font&gt;&lt;br style=&quot;font-size: 13px;&quot;&gt;&lt;span style=&quot;color: rgb(15, 15, 15); font-size: 13px;&quot;&gt;&lt;span style=&quot;white-space: pre;&quot;&gt;&amp;nbsp;&amp;nbsp;&amp;nbsp;&amp;nbsp;&lt;/span&gt;&lt;/span&gt;&lt;font color=&quot;#ff0000&quot; style=&quot;font-size: 13px;&quot;&gt;&quot;ubicacion&quot; &lt;/font&gt;&lt;/font&gt;&lt;font face=&quot;Comic Sans MS&quot; style=&quot;font-size: 13px;&quot;&gt;&lt;font color=&quot;#0f0f0f&quot; style=&quot;font-size: 13px;&quot;&gt;: &lt;/font&gt;&lt;font color=&quot;#009900&quot; style=&quot;font-size: 13px;&quot;&gt;&quot;String&quot;&lt;/font&gt;&lt;font color=&quot;#0f0f0f&quot; style=&quot;font-size: 13px;&quot;&gt;,&lt;/font&gt;&lt;br style=&quot;font-size: 13px;&quot;&gt;&lt;span style=&quot;color: rgb(15, 15, 15); font-size: 13px;&quot;&gt;&lt;span style=&quot;white-space: pre;&quot;&gt;&amp;nbsp;&amp;nbsp;&amp;nbsp;&amp;nbsp;&lt;/span&gt;&lt;/span&gt;&lt;font color=&quot;#ff0000&quot; style=&quot;font-size: 13px;&quot;&gt;&quot;estacion_alcance&quot;&lt;/font&gt;&lt;/font&gt;&lt;font face=&quot;Comic Sans MS&quot; style=&quot;font-size: 13px;&quot;&gt;&lt;font color=&quot;#0f0f0f&quot; style=&quot;font-size: 13px;&quot;&gt; : &lt;/font&gt;&lt;font color=&quot;#009900&quot; style=&quot;font-size: 13px;&quot;&gt;double,&lt;br&gt;&lt;/font&gt;&lt;/font&gt;&lt;font face=&quot;Comic Sans MS&quot;&gt;&lt;font color=&quot;#ff0000&quot;&gt;&amp;nbsp; &amp;nbsp; &quot;trabajadores&quot;&lt;/font&gt;&lt;/font&gt;&lt;font face=&quot;Comic Sans MS&quot;&gt;&lt;font color=&quot;#0f0f0f&quot;&gt;&amp;nbsp;:&amp;nbsp;&lt;/font&gt;&lt;font color=&quot;#009900&quot;&gt;array&lt;/font&gt;&lt;font color=&quot;#0f0f0f&quot;&gt;,&lt;/font&gt;&lt;br&gt;&lt;span style=&quot;white-space: pre;&quot;&gt;&amp;nbsp;&amp;nbsp;&amp;nbsp;&amp;nbsp;&lt;/span&gt;&lt;font color=&quot;#ff0000&quot;&gt;&quot;equipo_monitoreo&quot;&amp;nbsp;&lt;/font&gt;&lt;/font&gt;&lt;font face=&quot;Comic Sans MS&quot;&gt;&lt;font color=&quot;#0f0f0f&quot;&gt;: &lt;/font&gt;&lt;font color=&quot;#009900&quot;&gt;{}&lt;/font&gt;&lt;font color=&quot;#0f0f0f&quot;&gt;,&lt;/font&gt;&lt;br&gt;&lt;span style=&quot;color: rgb(15, 15, 15);&quot;&gt;&lt;span style=&quot;white-space: pre;&quot;&gt;&amp;nbsp;&amp;nbsp;&amp;nbsp;&amp;nbsp;&lt;/span&gt;&lt;/span&gt;&lt;font color=&quot;#ff0000&quot;&gt;&quot;medicion_inf&quot;&lt;/font&gt;&lt;/font&gt;&lt;font face=&quot;Comic Sans MS&quot;&gt;&lt;font color=&quot;#0f0f0f&quot;&gt;&amp;nbsp;:&amp;nbsp;&lt;/font&gt;&lt;font color=&quot;#009900&quot;&gt;{},&lt;/font&gt;&lt;/font&gt;&lt;font face=&quot;Comic Sans MS&quot; style=&quot;font-size: 13px;&quot;&gt;&lt;span style=&quot;font-size: 13px;&quot;&gt;&lt;font color=&quot;#009900&quot; style=&quot;font-size: 13px;&quot;&gt;&lt;span style=&quot;white-space: pre;&quot;&gt;&amp;nbsp;&lt;/span&gt;&lt;/font&gt;&lt;/span&gt;&lt;br style=&quot;font-size: 13px;&quot;&gt;&lt;font color=&quot;#0f0f0f&quot; style=&quot;font-size: 13px;&quot;&gt;}&lt;/font&gt;&lt;/font&gt;" style="align=left;strokeColor=none;fillColor=none;spacingLeft=4;fontSize=13;verticalAlign=top;resizable=0;rotatable=0;part=1;html=1;" vertex="1" parent="JJ6pGFsBF1nlRodCM9yX-52">
          <mxGeometry y="30" width="220" height="160" as="geometry" />
        </mxCell>
        <mxCell id="JJ6pGFsBF1nlRodCM9yX-54" value="" style="endArrow=classic;html=1;rounded=0;elbow=vertical;edgeStyle=orthogonalEdgeStyle;curved=1;startArrow=classic;startFill=0;strokeColor=#E6D0DE;fillColor=#cdeb8b;shadow=0;strokeWidth=2;exitX=1.005;exitY=0.827;exitDx=0;exitDy=0;exitPerimeter=0;entryX=0.006;entryY=0.215;entryDx=0;entryDy=0;entryPerimeter=0;" edge="1" parent="1" source="JJ6pGFsBF1nlRodCM9yX-48" target="JJ6pGFsBF1nlRodCM9yX-53">
          <mxGeometry width="50" height="50" relative="1" as="geometry">
            <mxPoint x="810" y="630" as="sourcePoint" />
            <mxPoint x="880" y="490" as="targetPoint" />
          </mxGeometry>
        </mxCell>
        <mxCell id="JJ6pGFsBF1nlRodCM9yX-55" value="&lt;font face=&quot;Comic Sans MS&quot;&gt;&lt;b&gt;Trabajadores&lt;/b&gt;&lt;/font&gt;" style="swimlane;childLayout=stackLayout;horizontal=1;startSize=30;horizontalStack=0;rounded=1;fontSize=13;fontStyle=0;strokeWidth=2;resizeParent=0;resizeLast=1;shadow=0;dashed=0;align=center;arcSize=4;whiteSpace=wrap;html=1;labelBackgroundColor=none;fillColor=#007E3F;fontColor=#0F0F0F;strokeColor=#0F0F0F;swimlaneLine=1;gradientColor=none;swimlaneFillColor=#FFFFFF;" vertex="1" parent="1">
          <mxGeometry x="1140" y="430" width="210" height="260" as="geometry" />
        </mxCell>
        <mxCell id="JJ6pGFsBF1nlRodCM9yX-56" value="&lt;font face=&quot;Comic Sans MS&quot; style=&quot;font-size: 13px;&quot;&gt;&lt;font color=&quot;#0f0f0f&quot; style=&quot;font-size: 13px;&quot;&gt;{&lt;/font&gt;&lt;br style=&quot;font-size: 13px;&quot;&gt;&lt;span style=&quot;font-size: 13px;&quot;&gt;&lt;span style=&quot;color: rgb(15, 15, 15); font-size: 13px;&quot;&gt;&lt;span style=&quot;white-space: pre;&quot;&gt;&amp;nbsp;&amp;nbsp;&amp;nbsp;&amp;nbsp;&lt;span style=&quot;white-space: pre;&quot;&gt;&#x9;&lt;/span&gt;&lt;/span&gt;&lt;/span&gt;&lt;font color=&quot;#ff0000&quot; style=&quot;font-size: 13px;&quot;&gt;&quot;id_trabajador&lt;/font&gt;&lt;/span&gt;&lt;font color=&quot;#ff0000&quot; style=&quot;font-size: 13px;&quot;&gt;&quot;&lt;/font&gt;&lt;/font&gt;&lt;font face=&quot;Comic Sans MS&quot; style=&quot;font-size: 13px;&quot;&gt;&lt;font color=&quot;#0f0f0f&quot; style=&quot;font-size: 13px;&quot;&gt; : &lt;/font&gt;&lt;font color=&quot;#009900&quot; style=&quot;font-size: 13px;&quot;&gt;int&lt;/font&gt;&lt;font color=&quot;#0f0f0f&quot; style=&quot;font-size: 13px;&quot;&gt;,&lt;/font&gt;&lt;br style=&quot;font-size: 13px;&quot;&gt;&lt;span style=&quot;color: rgb(15, 15, 15); font-size: 13px;&quot;&gt;&lt;span style=&quot;white-space: pre;&quot;&gt;&amp;nbsp;&amp;nbsp;&amp;nbsp;&amp;nbsp;&lt;span style=&quot;white-space: pre;&quot;&gt;&#x9;&lt;/span&gt;&lt;/span&gt;&lt;/span&gt;&lt;font color=&quot;#ff0000&quot; style=&quot;font-size: 13px;&quot;&gt;&quot;nombre&quot;&lt;/font&gt;&lt;/font&gt;&lt;font face=&quot;Comic Sans MS&quot; style=&quot;font-size: 13px;&quot;&gt;&lt;font color=&quot;#0f0f0f&quot; style=&quot;font-size: 13px;&quot;&gt; : &lt;/font&gt;&lt;font color=&quot;#009900&quot; style=&quot;font-size: 13px;&quot;&gt;&quot;String&quot;&lt;/font&gt;&lt;font color=&quot;#0f0f0f&quot; style=&quot;font-size: 13px;&quot;&gt;,&lt;/font&gt;&lt;br style=&quot;font-size: 13px;&quot;&gt;&lt;span style=&quot;color: rgb(15, 15, 15); font-size: 13px;&quot;&gt;&lt;span style=&quot;white-space: pre;&quot;&gt;&amp;nbsp;&amp;nbsp;&amp;nbsp;&amp;nbsp;&lt;span style=&quot;white-space: pre;&quot;&gt;&#x9;&lt;/span&gt;&lt;/span&gt;&lt;/span&gt;&lt;font color=&quot;#ff0000&quot; style=&quot;font-size: 13px;&quot;&gt;&quot;ap_p&quot; &lt;/font&gt;&lt;/font&gt;&lt;font face=&quot;Comic Sans MS&quot; style=&quot;font-size: 13px;&quot;&gt;&lt;font color=&quot;#0f0f0f&quot; style=&quot;font-size: 13px;&quot;&gt;: &lt;/font&gt;&lt;font color=&quot;#009900&quot; style=&quot;font-size: 13px;&quot;&gt;double&lt;/font&gt;&lt;font color=&quot;#0f0f0f&quot; style=&quot;font-size: 13px;&quot;&gt;,&lt;/font&gt;&lt;br style=&quot;font-size: 13px;&quot;&gt;&lt;span style=&quot;color: rgb(15, 15, 15); font-size: 13px;&quot;&gt;&lt;span style=&quot;white-space: pre;&quot;&gt;&amp;nbsp;&amp;nbsp;&amp;nbsp;&amp;nbsp;&lt;span style=&quot;white-space: pre;&quot;&gt;&#x9;&lt;/span&gt;&lt;/span&gt;&lt;/span&gt;&lt;font color=&quot;#ff0000&quot; style=&quot;font-size: 13px;&quot;&gt;&quot;ap_m&quot;&lt;/font&gt;&lt;/font&gt;&lt;font face=&quot;Comic Sans MS&quot; style=&quot;font-size: 13px;&quot;&gt;&lt;font color=&quot;#0f0f0f&quot; style=&quot;font-size: 13px;&quot;&gt; : &lt;/font&gt;&lt;font color=&quot;#009900&quot; style=&quot;font-size: 13px;&quot;&gt;&quot;String&quot;&lt;/font&gt;&lt;font color=&quot;#0f0f0f&quot; style=&quot;font-size: 13px;&quot;&gt;,&lt;/font&gt;&lt;br style=&quot;font-size: 13px;&quot;&gt;&lt;span style=&quot;color: rgb(15, 15, 15); font-size: 13px;&quot;&gt;&lt;span style=&quot;white-space: pre;&quot;&gt;&amp;nbsp;&amp;nbsp;&amp;nbsp;&amp;nbsp;&lt;span style=&quot;white-space: pre;&quot;&gt;&#x9;&lt;/span&gt;&lt;/span&gt;&lt;/span&gt;&lt;font color=&quot;#ff0000&quot; style=&quot;font-size: 13px;&quot;&gt;&quot;edad&quot;&lt;/font&gt;&lt;/font&gt;&lt;font face=&quot;Comic Sans MS&quot; style=&quot;font-size: 13px;&quot;&gt;&lt;font color=&quot;#0f0f0f&quot; style=&quot;font-size: 13px;&quot;&gt; : &lt;/font&gt;&lt;font color=&quot;#009900&quot; style=&quot;font-size: 13px;&quot;&gt;int&lt;/font&gt;&lt;font color=&quot;#0f0f0f&quot; style=&quot;font-size: 13px;&quot;&gt;,&lt;/font&gt;&lt;br style=&quot;font-size: 13px;&quot;&gt;&lt;font color=&quot;#ff0000&quot; style=&quot;font-size: 13px;&quot;&gt;&amp;nbsp; &amp;nbsp; &lt;span style=&quot;white-space: pre;&quot;&gt;&#x9;&lt;/span&gt;&quot;address&quot;&lt;/font&gt;&lt;font color=&quot;#0f0f0f&quot; style=&quot;font-size: 13px;&quot;&gt; : &lt;/font&gt;&lt;font color=&quot;#009900&quot; style=&quot;font-size: 13px;&quot;&gt;&quot;String&quot;&lt;/font&gt;&lt;font color=&quot;#0f0f0f&quot; style=&quot;font-size: 13px;&quot;&gt;,&lt;br style=&quot;font-size: 13px;&quot;&gt;&lt;/font&gt;&lt;font color=&quot;#ff0000&quot; style=&quot;font-size: 13px;&quot;&gt;&amp;nbsp; &amp;nbsp; &lt;span style=&quot;white-space: pre;&quot;&gt;&#x9;&lt;/span&gt;&quot;telefono&quot;&lt;/font&gt;&lt;font color=&quot;#0f0f0f&quot; style=&quot;font-size: 13px;&quot;&gt; : &lt;/font&gt;&lt;font color=&quot;#009900&quot; style=&quot;font-size: 13px;&quot;&gt;&quot;String&quot;&lt;/font&gt;&lt;font color=&quot;#0f0f0f&quot; style=&quot;font-size: 13px;&quot;&gt;,&lt;br style=&quot;font-size: 13px;&quot;&gt;&lt;/font&gt;&lt;font color=&quot;#ff0000&quot; style=&quot;font-size: 13px;&quot;&gt;&amp;nbsp; &amp;nbsp; &lt;span style=&quot;white-space: pre;&quot;&gt;&#x9;&lt;/span&gt;&quot;rol&quot;&lt;/font&gt;&lt;font color=&quot;#0f0f0f&quot; style=&quot;font-size: 13px;&quot;&gt; : &lt;/font&gt;&lt;font style=&quot;font-size: 13px;&quot;&gt;&lt;font color=&quot;#009900&quot;&gt;&quot;String&quot;,&lt;/font&gt;&lt;font color=&quot;#0f0f0f&quot;&gt;&lt;span style=&quot;white-space-collapse: preserve;&quot;&gt;&lt;br&gt;&lt;/span&gt;&lt;/font&gt;&lt;/font&gt;&lt;/font&gt;&lt;font style=&quot;border-color: var(--border-color); font-family: &amp;quot;Comic Sans MS&amp;quot;;&quot; color=&quot;#ff0000&quot;&gt;&amp;nbsp; &amp;nbsp; &lt;span style=&quot;white-space: pre;&quot;&gt;&#x9;&lt;/span&gt;&quot;email&quot;&lt;/font&gt;&lt;font style=&quot;border-color: var(--border-color); font-family: &amp;quot;Comic Sans MS&amp;quot;;&quot; color=&quot;#0f0f0f&quot;&gt; : &lt;/font&gt;&lt;font style=&quot;border-color: var(--border-color); font-family: &amp;quot;Comic Sans MS&amp;quot;;&quot; color=&quot;#009900&quot;&gt;&quot;String&quot;&lt;/font&gt;&lt;font style=&quot;border-color: var(--border-color); font-family: &amp;quot;Comic Sans MS&amp;quot;;&quot; color=&quot;#0f0f0f&quot;&gt;,&lt;br style=&quot;border-color: var(--border-color);&quot;&gt;&lt;/font&gt;&lt;span style=&quot;border-color: var(--border-color); font-family: &amp;quot;Comic Sans MS&amp;quot;; color: rgb(15, 15, 15);&quot;&gt;&lt;span style=&quot;white-space: pre;&quot;&gt;&amp;nbsp;&amp;nbsp;&amp;nbsp;&amp;nbsp;&lt;span style=&quot;white-space: pre;&quot;&gt;&#x9;&lt;/span&gt;&lt;/span&gt;&lt;/span&gt;&lt;font style=&quot;border-color: var(--border-color); font-family: &amp;quot;Comic Sans MS&amp;quot;;&quot; color=&quot;#ff0000&quot;&gt;&quot;horario_turno&quot;&lt;/font&gt;&lt;font style=&quot;border-color: var(--border-color); font-family: &amp;quot;Comic Sans MS&amp;quot;;&quot; color=&quot;#0f0f0f&quot;&gt; : &lt;/font&gt;&lt;font style=&quot;border-color: var(--border-color); font-family: &amp;quot;Comic Sans MS&amp;quot;;&quot; color=&quot;#009900&quot;&gt;&quot;String&quot;&lt;/font&gt;&lt;font style=&quot;border-color: var(--border-color); font-family: &amp;quot;Comic Sans MS&amp;quot;;&quot; color=&quot;#0f0f0f&quot;&gt;,&lt;br style=&quot;border-color: var(--border-color);&quot;&gt;&lt;/font&gt;&lt;span style=&quot;border-color: var(--border-color); font-family: &amp;quot;Comic Sans MS&amp;quot;; color: rgb(15, 15, 15);&quot;&gt;&lt;span style=&quot;white-space: pre;&quot;&gt;&amp;nbsp;&amp;nbsp;&amp;nbsp;&amp;nbsp;&lt;span style=&quot;white-space: pre;&quot;&gt;&#x9;&lt;/span&gt;&lt;/span&gt;&lt;/span&gt;&lt;font style=&quot;border-color: var(--border-color); font-family: &amp;quot;Comic Sans MS&amp;quot;;&quot; color=&quot;#ff0000&quot;&gt;&quot;active&quot;&lt;/font&gt;&lt;font style=&quot;border-color: var(--border-color); font-family: &amp;quot;Comic Sans MS&amp;quot;;&quot; color=&quot;#0f0f0f&quot;&gt; : &lt;/font&gt;&lt;font style=&quot;border-color: var(--border-color); font-family: &amp;quot;Comic Sans MS&amp;quot;;&quot; color=&quot;#009900&quot;&gt;Boolean,&lt;/font&gt;&lt;font face=&quot;Comic Sans MS&quot; style=&quot;font-size: 13px;&quot;&gt;&lt;span style=&quot;font-size: 13px;&quot;&gt;&lt;font color=&quot;#009900&quot; style=&quot;font-size: 13px;&quot;&gt;&lt;br&gt;&lt;span style=&quot;white-space: pre;&quot;&gt;&amp;nbsp;&amp;nbsp;&amp;nbsp;&amp;nbsp;&lt;/span&gt;&lt;/font&gt;&lt;/span&gt;&lt;br style=&quot;font-size: 13px;&quot;&gt;&lt;font color=&quot;#0f0f0f&quot; style=&quot;font-size: 13px;&quot;&gt;}&lt;/font&gt;&lt;/font&gt;" style="align=left;strokeColor=none;fillColor=none;spacingLeft=4;fontSize=13;verticalAlign=top;resizable=0;rotatable=0;part=1;html=1;" vertex="1" parent="JJ6pGFsBF1nlRodCM9yX-55">
          <mxGeometry y="30" width="210" height="230" as="geometry" />
        </mxCell>
        <mxCell id="JJ6pGFsBF1nlRodCM9yX-57" value="&lt;font face=&quot;Comic Sans MS&quot;&gt;&lt;b&gt;Equipo_Monitoreo&lt;/b&gt;&lt;/font&gt;" style="swimlane;childLayout=stackLayout;horizontal=1;startSize=30;horizontalStack=0;rounded=1;fontSize=13;fontStyle=0;strokeWidth=2;resizeParent=0;resizeLast=1;shadow=0;dashed=0;align=center;arcSize=4;whiteSpace=wrap;html=1;labelBackgroundColor=none;fillColor=#007E3F;fontColor=#0F0F0F;strokeColor=#0F0F0F;swimlaneLine=1;gradientColor=none;swimlaneFillColor=#FFFFFF;" vertex="1" parent="1">
          <mxGeometry x="1140" y="720" width="291" height="220" as="geometry" />
        </mxCell>
        <mxCell id="JJ6pGFsBF1nlRodCM9yX-58" value="" style="endArrow=classic;html=1;rounded=0;elbow=vertical;edgeStyle=orthogonalEdgeStyle;curved=1;startArrow=classic;startFill=0;strokeColor=#E6D0DE;fillColor=#cdeb8b;shadow=0;strokeWidth=2;exitX=1.005;exitY=0.827;exitDx=0;exitDy=0;exitPerimeter=0;entryX=0.003;entryY=0.148;entryDx=0;entryDy=0;entryPerimeter=0;" edge="1" parent="JJ6pGFsBF1nlRodCM9yX-57" target="JJ6pGFsBF1nlRodCM9yX-56">
          <mxGeometry width="50" height="50" relative="1" as="geometry">
            <mxPoint x="-50" y="89.48000000000002" as="sourcePoint" />
            <mxPoint x="-20" y="-110" as="targetPoint" />
          </mxGeometry>
        </mxCell>
        <mxCell id="JJ6pGFsBF1nlRodCM9yX-59" value="&lt;font face=&quot;Comic Sans MS&quot; style=&quot;font-size: 13px;&quot;&gt;&lt;font color=&quot;#0f0f0f&quot; style=&quot;font-size: 13px;&quot;&gt;{&lt;/font&gt;&lt;br style=&quot;font-size: 13px;&quot;&gt;&lt;span style=&quot;font-size: 13px;&quot;&gt;&lt;span style=&quot;color: rgb(15, 15, 15); font-size: 13px;&quot;&gt;&lt;span style=&quot;white-space: pre;&quot;&gt;&amp;nbsp;&amp;nbsp;&amp;nbsp;&amp;nbsp;&lt;span style=&quot;white-space: pre;&quot;&gt;&#x9;&lt;/span&gt;&lt;/span&gt;&lt;/span&gt;&lt;font color=&quot;#ff0000&quot; style=&quot;font-size: 13px;&quot;&gt;&quot;id_equipo&lt;/font&gt;&lt;/span&gt;&lt;font color=&quot;#ff0000&quot; style=&quot;font-size: 13px;&quot;&gt;&quot;&lt;/font&gt;&lt;/font&gt;&lt;font face=&quot;Comic Sans MS&quot; style=&quot;font-size: 13px;&quot;&gt;&lt;font color=&quot;#0f0f0f&quot; style=&quot;font-size: 13px;&quot;&gt; : &lt;/font&gt;&lt;font color=&quot;#009900&quot; style=&quot;font-size: 13px;&quot;&gt;int&lt;/font&gt;&lt;font color=&quot;#0f0f0f&quot; style=&quot;font-size: 13px;&quot;&gt;,&lt;/font&gt;&lt;br style=&quot;font-size: 13px;&quot;&gt;&lt;span style=&quot;color: rgb(15, 15, 15); font-size: 13px;&quot;&gt;&lt;span style=&quot;white-space: pre;&quot;&gt;&amp;nbsp;&amp;nbsp;&amp;nbsp;&amp;nbsp;&lt;span style=&quot;white-space: pre;&quot;&gt;&#x9;&lt;/span&gt;&lt;/span&gt;&lt;/span&gt;&lt;font color=&quot;#ff0000&quot; style=&quot;font-size: 13px;&quot;&gt;&quot;nombre&quot;&lt;/font&gt;&lt;/font&gt;&lt;font face=&quot;Comic Sans MS&quot; style=&quot;font-size: 13px;&quot;&gt;&lt;font color=&quot;#0f0f0f&quot; style=&quot;font-size: 13px;&quot;&gt; : &lt;/font&gt;&lt;font color=&quot;#009900&quot; style=&quot;font-size: 13px;&quot;&gt;&quot;String&quot;&lt;/font&gt;&lt;font color=&quot;#0f0f0f&quot; style=&quot;font-size: 13px;&quot;&gt;,&lt;/font&gt;&lt;br style=&quot;font-size: 13px;&quot;&gt;&lt;span style=&quot;color: rgb(15, 15, 15); font-size: 13px;&quot;&gt;&lt;span style=&quot;white-space: pre;&quot;&gt;&amp;nbsp;&amp;nbsp;&amp;nbsp;&amp;nbsp;&lt;span style=&quot;white-space: pre;&quot;&gt;&#x9;&lt;/span&gt;&lt;/span&gt;&lt;/span&gt;&lt;font color=&quot;#ff0000&quot; style=&quot;font-size: 13px;&quot;&gt;&quot;tipo_equipo&quot; &lt;/font&gt;&lt;/font&gt;&lt;font face=&quot;Comic Sans MS&quot; style=&quot;font-size: 13px;&quot;&gt;&lt;font color=&quot;#0f0f0f&quot; style=&quot;font-size: 13px;&quot;&gt;: &lt;/font&gt;&lt;font color=&quot;#009900&quot; style=&quot;font-size: 13px;&quot;&gt;&quot;String&quot;&lt;/font&gt;&lt;font color=&quot;#0f0f0f&quot; style=&quot;font-size: 13px;&quot;&gt;,&lt;/font&gt;&lt;br style=&quot;font-size: 13px;&quot;&gt;&lt;span style=&quot;color: rgb(15, 15, 15); font-size: 13px;&quot;&gt;&lt;span style=&quot;white-space: pre;&quot;&gt;&amp;nbsp;&amp;nbsp;&amp;nbsp;&amp;nbsp;&lt;span style=&quot;white-space: pre;&quot;&gt;&#x9;&lt;/span&gt;&lt;/span&gt;&lt;/span&gt;&lt;font color=&quot;#ff0000&quot; style=&quot;font-size: 13px;&quot;&gt;&quot;fabricante&quot;&lt;/font&gt;&lt;/font&gt;&lt;font face=&quot;Comic Sans MS&quot; style=&quot;font-size: 13px;&quot;&gt;&lt;font color=&quot;#0f0f0f&quot; style=&quot;font-size: 13px;&quot;&gt; : &lt;/font&gt;&lt;font color=&quot;#009900&quot; style=&quot;font-size: 13px;&quot;&gt;&quot;String&quot;&lt;/font&gt;&lt;font color=&quot;#0f0f0f&quot; style=&quot;font-size: 13px;&quot;&gt;,&lt;/font&gt;&lt;br style=&quot;font-size: 13px;&quot;&gt;&lt;span style=&quot;color: rgb(15, 15, 15); font-size: 13px;&quot;&gt;&lt;span style=&quot;white-space: pre;&quot;&gt;&amp;nbsp;&amp;nbsp;&amp;nbsp;&amp;nbsp;&lt;span style=&quot;white-space: pre;&quot;&gt;&#x9;&lt;/span&gt;&lt;/span&gt;&lt;/span&gt;&lt;font color=&quot;#ff0000&quot; style=&quot;font-size: 13px;&quot;&gt;&quot;modelo&quot;&lt;/font&gt;&lt;/font&gt;&lt;font face=&quot;Comic Sans MS&quot; style=&quot;font-size: 13px;&quot;&gt;&lt;font color=&quot;#0f0f0f&quot; style=&quot;font-size: 13px;&quot;&gt; : &lt;/font&gt;&lt;font color=&quot;#009900&quot; style=&quot;font-size: 13px;&quot;&gt;&quot;String&quot;&lt;/font&gt;&lt;font color=&quot;#0f0f0f&quot; style=&quot;font-size: 13px;&quot;&gt;,&lt;/font&gt;&lt;br style=&quot;font-size: 13px;&quot;&gt;&lt;font color=&quot;#ff0000&quot; style=&quot;font-size: 13px;&quot;&gt;&amp;nbsp; &amp;nbsp; &lt;span style=&quot;white-space: pre;&quot;&gt;&#x9;&lt;/span&gt;&quot;active&quot;&lt;/font&gt;&lt;font color=&quot;#0f0f0f&quot; style=&quot;font-size: 13px;&quot;&gt; : &lt;/font&gt;&lt;font color=&quot;#009900&quot; style=&quot;font-size: 13px;&quot;&gt;Boolean&lt;/font&gt;&lt;font color=&quot;#0f0f0f&quot; style=&quot;font-size: 13px;&quot;&gt;,&lt;br style=&quot;font-size: 13px;&quot;&gt;&lt;/font&gt;&lt;font color=&quot;#ff0000&quot; style=&quot;font-size: 13px;&quot;&gt;&amp;nbsp; &amp;nbsp; &lt;span style=&quot;white-space: pre;&quot;&gt;&#x9;&lt;/span&gt;&quot;telefono&quot;&lt;/font&gt;&lt;font color=&quot;#0f0f0f&quot; style=&quot;font-size: 13px;&quot;&gt; : &lt;/font&gt;&lt;font color=&quot;#009900&quot; style=&quot;font-size: 13px;&quot;&gt;&quot;String&quot;&lt;/font&gt;&lt;font color=&quot;#0f0f0f&quot; style=&quot;font-size: 13px;&quot;&gt;,&lt;br style=&quot;font-size: 13px;&quot;&gt;&lt;/font&gt;&lt;font color=&quot;#ff0000&quot; style=&quot;font-size: 13px;&quot;&gt;&amp;nbsp; &amp;nbsp; &lt;span style=&quot;white-space: pre;&quot;&gt;&#x9;&lt;/span&gt;&quot;f_instalacion&quot;&lt;/font&gt;&lt;font color=&quot;#0f0f0f&quot; style=&quot;font-size: 13px;&quot;&gt; : &lt;/font&gt;&lt;font color=&quot;#009900&quot; style=&quot;font-size: 13px;&quot;&gt;new Date(&quot;DD-MM-YY&quot;),&lt;/font&gt;&lt;font style=&quot;font-size: 13px;&quot;&gt;&lt;font color=&quot;#0f0f0f&quot;&gt;&lt;span style=&quot;white-space-collapse: preserve;&quot;&gt;&lt;br&gt;&lt;/span&gt;&lt;/font&gt;&lt;/font&gt;&lt;/font&gt;&lt;font style=&quot;border-color: var(--border-color); font-family: &amp;quot;Comic Sans MS&amp;quot;;&quot; color=&quot;#ff0000&quot;&gt;&amp;nbsp; &amp;nbsp; &lt;span style=&quot;white-space: pre;&quot;&gt;&#x9;&lt;/span&gt;&quot;f_revision&quot;&lt;/font&gt;&lt;font style=&quot;border-color: var(--border-color); font-family: &amp;quot;Comic Sans MS&amp;quot;;&quot; color=&quot;#0f0f0f&quot;&gt; : &lt;/font&gt;&lt;font style=&quot;border-color: var(--border-color); font-family: &amp;quot;Comic Sans MS&amp;quot;;&quot; color=&quot;#009900&quot;&gt;new Date(&quot;DD-MM-YY&quot;)&lt;br&gt;&lt;/font&gt;&lt;font face=&quot;Comic Sans MS&quot; style=&quot;font-size: 13px;&quot;&gt;&lt;font color=&quot;#0f0f0f&quot; style=&quot;font-size: 13px;&quot;&gt;}&lt;/font&gt;&lt;/font&gt;" style="align=left;strokeColor=none;fillColor=none;spacingLeft=4;fontSize=13;verticalAlign=top;resizable=0;rotatable=0;part=1;html=1;" vertex="1" parent="JJ6pGFsBF1nlRodCM9yX-57">
          <mxGeometry y="30" width="291" height="190" as="geometry" />
        </mxCell>
        <mxCell id="JJ6pGFsBF1nlRodCM9yX-60" value="&lt;font face=&quot;Comic Sans MS&quot;&gt;&lt;b&gt;Medicion_inf&lt;/b&gt;&lt;/font&gt;" style="swimlane;childLayout=stackLayout;horizontal=1;startSize=30;horizontalStack=0;rounded=1;fontSize=13;fontStyle=0;strokeWidth=2;resizeParent=0;resizeLast=1;shadow=0;dashed=0;align=center;arcSize=4;whiteSpace=wrap;html=1;labelBackgroundColor=none;fillColor=#007E3F;fontColor=#0F0F0F;strokeColor=#0F0F0F;swimlaneLine=1;gradientColor=none;swimlaneFillColor=#FFFFFF;" vertex="1" parent="1">
          <mxGeometry x="1140" y="965" width="249" height="125" as="geometry" />
        </mxCell>
        <mxCell id="JJ6pGFsBF1nlRodCM9yX-61" value="&lt;font face=&quot;Comic Sans MS&quot; style=&quot;font-size: 13px;&quot;&gt;&lt;font color=&quot;#0f0f0f&quot; style=&quot;font-size: 13px;&quot;&gt;{&lt;/font&gt;&lt;br style=&quot;font-size: 13px;&quot;&gt;&lt;span style=&quot;font-size: 13px;&quot;&gt;&lt;span style=&quot;color: rgb(15, 15, 15); font-size: 13px;&quot;&gt;&lt;span style=&quot;white-space: pre;&quot;&gt;&amp;nbsp;&amp;nbsp;&amp;nbsp;&amp;nbsp;&lt;span style=&quot;white-space: pre;&quot;&gt;&#x9;&lt;/span&gt;&lt;/span&gt;&lt;/span&gt;&lt;font color=&quot;#ff0000&quot; style=&quot;font-size: 13px;&quot;&gt;&quot;id_medicion&lt;/font&gt;&lt;/span&gt;&lt;font color=&quot;#ff0000&quot; style=&quot;font-size: 13px;&quot;&gt;&quot;&lt;/font&gt;&lt;/font&gt;&lt;font face=&quot;Comic Sans MS&quot; style=&quot;font-size: 13px;&quot;&gt;&lt;font color=&quot;#0f0f0f&quot; style=&quot;font-size: 13px;&quot;&gt; : &lt;/font&gt;&lt;font color=&quot;#009900&quot; style=&quot;font-size: 13px;&quot;&gt;int&lt;/font&gt;&lt;font color=&quot;#0f0f0f&quot; style=&quot;font-size: 13px;&quot;&gt;,&lt;br&gt;&lt;/font&gt;&lt;/font&gt;&lt;font style=&quot;border-color: var(--border-color);&quot; face=&quot;Comic Sans MS&quot;&gt;&lt;font style=&quot;border-color: var(--border-color);&quot; color=&quot;#ff0000&quot;&gt;&lt;span style=&quot;white-space: pre;&quot;&gt;&#x9;&lt;/span&gt;&quot;fecha&lt;/font&gt;&lt;font style=&quot;border-color: var(--border-color);&quot; color=&quot;#ff0000&quot;&gt;&quot;&lt;/font&gt;&lt;/font&gt;&lt;font style=&quot;border-color: var(--border-color);&quot; face=&quot;Comic Sans MS&quot;&gt;&lt;font style=&quot;border-color: var(--border-color);&quot; color=&quot;#0f0f0f&quot;&gt;&amp;nbsp;:&amp;nbsp;&lt;/font&gt;&lt;font style=&quot;border-color: var(--border-color);&quot; color=&quot;#009900&quot;&gt;new Date(&quot;DD-MM-YY&quot;)&lt;/font&gt;&lt;font style=&quot;border-color: var(--border-color);&quot; color=&quot;#0f0f0f&quot;&gt;,&lt;/font&gt;&lt;br style=&quot;border-color: var(--border-color);&quot;&gt;&lt;/font&gt;&lt;font face=&quot;Comic Sans MS&quot; style=&quot;font-size: 13px;&quot;&gt;&lt;span style=&quot;color: rgb(15, 15, 15); font-size: 13px;&quot;&gt;&lt;span style=&quot;white-space: pre;&quot;&gt;&amp;nbsp;&amp;nbsp;&amp;nbsp;&amp;nbsp;&lt;span style=&quot;white-space: pre;&quot;&gt;&#x9;&lt;/span&gt;&lt;/span&gt;&lt;/span&gt;&lt;font color=&quot;#ff0000&quot; style=&quot;font-size: 13px;&quot;&gt;&quot;contaminacion&quot;&lt;/font&gt;&lt;/font&gt;&lt;font face=&quot;Comic Sans MS&quot; style=&quot;font-size: 13px;&quot;&gt;&lt;font color=&quot;#0f0f0f&quot; style=&quot;font-size: 13px;&quot;&gt; : &lt;/font&gt;&lt;font color=&quot;#009900&quot; style=&quot;font-size: 13px;&quot;&gt;Array&lt;/font&gt;&lt;/font&gt;&lt;font face=&quot;Comic Sans MS&quot; style=&quot;font-size: 13px;&quot;&gt;&lt;br style=&quot;font-size: 13px;&quot;&gt;&lt;font color=&quot;#0f0f0f&quot; style=&quot;font-size: 13px;&quot;&gt;}&lt;/font&gt;&lt;/font&gt;" style="align=left;strokeColor=none;fillColor=none;spacingLeft=4;fontSize=13;verticalAlign=top;resizable=0;rotatable=0;part=1;html=1;" vertex="1" parent="JJ6pGFsBF1nlRodCM9yX-60">
          <mxGeometry y="30" width="249" height="95" as="geometry" />
        </mxCell>
        <mxCell id="JJ6pGFsBF1nlRodCM9yX-62" value="" style="endArrow=classic;html=1;rounded=0;elbow=vertical;edgeStyle=orthogonalEdgeStyle;curved=1;startArrow=classic;startFill=0;strokeColor=#E6D0DE;fillColor=#cdeb8b;shadow=0;strokeWidth=2;exitX=1.005;exitY=0.827;exitDx=0;exitDy=0;exitPerimeter=0;entryX=0.009;entryY=0.167;entryDx=0;entryDy=0;entryPerimeter=0;" edge="1" parent="1" target="JJ6pGFsBF1nlRodCM9yX-59">
          <mxGeometry width="50" height="50" relative="1" as="geometry">
            <mxPoint x="1090" y="827" as="sourcePoint" />
            <mxPoint x="1160" y="800" as="targetPoint" />
          </mxGeometry>
        </mxCell>
        <mxCell id="JJ6pGFsBF1nlRodCM9yX-63" value="" style="endArrow=classic;html=1;rounded=0;elbow=vertical;edgeStyle=orthogonalEdgeStyle;curved=1;startArrow=classic;startFill=0;strokeColor=#E6D0DE;fillColor=#cdeb8b;shadow=0;strokeWidth=2;exitX=1.007;exitY=0.816;exitDx=0;exitDy=0;exitPerimeter=0;entryX=-0.001;entryY=0.349;entryDx=0;entryDy=0;entryPerimeter=0;" edge="1" parent="1" source="JJ6pGFsBF1nlRodCM9yX-53" target="JJ6pGFsBF1nlRodCM9yX-61">
          <mxGeometry width="50" height="50" relative="1" as="geometry">
            <mxPoint x="1100" y="837" as="sourcePoint" />
            <mxPoint x="1153" y="792" as="targetPoint" />
          </mxGeometry>
        </mxCell>
        <mxCell id="JJ6pGFsBF1nlRodCM9yX-64" value="&lt;font face=&quot;Comic Sans MS&quot;&gt;&lt;b&gt;Contaminacion&lt;/b&gt;&lt;/font&gt;" style="swimlane;childLayout=stackLayout;horizontal=1;startSize=30;horizontalStack=0;rounded=1;fontSize=13;fontStyle=0;strokeWidth=2;resizeParent=0;resizeLast=1;shadow=0;dashed=0;align=center;arcSize=4;whiteSpace=wrap;html=1;labelBackgroundColor=none;fillColor=#007E3F;fontColor=#0F0F0F;strokeColor=#0F0F0F;swimlaneLine=1;gradientColor=none;swimlaneFillColor=#FFFFFF;" vertex="1" parent="1">
          <mxGeometry x="1500" y="780" width="200" height="140" as="geometry" />
        </mxCell>
        <mxCell id="JJ6pGFsBF1nlRodCM9yX-65" value="&lt;font face=&quot;Comic Sans MS&quot; style=&quot;font-size: 13px;&quot;&gt;&lt;font color=&quot;#0f0f0f&quot; style=&quot;font-size: 13px;&quot;&gt;{&lt;/font&gt;&lt;br style=&quot;font-size: 13px;&quot;&gt;&lt;span style=&quot;white-space: pre; font-size: 13px;&quot;&gt;&lt;span style=&quot;color: rgb(15, 15, 15); white-space: pre; font-size: 13px;&quot;&gt;&#x9;&lt;/span&gt;&lt;font color=&quot;#ff0000&quot; style=&quot;font-size: 13px;&quot;&gt;&quot;id_contaminacion&lt;/font&gt;&lt;/span&gt;&lt;font color=&quot;#ff0000&quot; style=&quot;font-size: 13px;&quot;&gt;&quot;&lt;/font&gt;&lt;/font&gt;&lt;font face=&quot;Comic Sans MS&quot; style=&quot;font-size: 13px;&quot;&gt;&lt;font color=&quot;#0f0f0f&quot; style=&quot;font-size: 13px;&quot;&gt; : &lt;/font&gt;&lt;font color=&quot;#009900&quot; style=&quot;font-size: 13px;&quot;&gt;int&lt;/font&gt;&lt;font color=&quot;#0f0f0f&quot; style=&quot;font-size: 13px;&quot;&gt;,&lt;/font&gt;&lt;br style=&quot;font-size: 13px;&quot;&gt;&lt;span style=&quot;color: rgb(15, 15, 15); white-space: pre; font-size: 13px;&quot;&gt;&#x9;&lt;/span&gt;&lt;font color=&quot;#ff0000&quot; style=&quot;font-size: 13px;&quot;&gt;&quot;nombre&quot;&lt;/font&gt;&lt;/font&gt;&lt;font face=&quot;Comic Sans MS&quot; style=&quot;font-size: 13px;&quot;&gt;&lt;font color=&quot;#0f0f0f&quot; style=&quot;font-size: 13px;&quot;&gt; : &lt;/font&gt;&lt;font color=&quot;#009900&quot; style=&quot;font-size: 13px;&quot;&gt;&quot;String&quot;&lt;/font&gt;&lt;font color=&quot;#0f0f0f&quot; style=&quot;font-size: 13px;&quot;&gt;,&lt;/font&gt;&lt;br style=&quot;font-size: 13px;&quot;&gt;&lt;span style=&quot;color: rgb(15, 15, 15); white-space: pre; font-size: 13px;&quot;&gt;&#x9;&lt;/span&gt;&lt;font color=&quot;#ff0000&quot; style=&quot;font-size: 13px;&quot;&gt;&quot;descripcion&quot; &lt;/font&gt;&lt;/font&gt;&lt;font face=&quot;Comic Sans MS&quot; style=&quot;font-size: 13px;&quot;&gt;&lt;font color=&quot;#0f0f0f&quot; style=&quot;font-size: 13px;&quot;&gt;: &lt;/font&gt;&lt;font color=&quot;#009900&quot; style=&quot;font-size: 13px;&quot;&gt;&quot;String&quot;&lt;/font&gt;&lt;font color=&quot;#0f0f0f&quot; style=&quot;font-size: 13px;&quot;&gt;,&lt;/font&gt;&lt;br style=&quot;font-size: 13px;&quot;&gt;&lt;span style=&quot;color: rgb(15, 15, 15); white-space: pre; font-size: 13px;&quot;&gt;&#x9;&lt;/span&gt;&lt;font color=&quot;#ff0000&quot; style=&quot;font-size: 13px;&quot;&gt;&quot;alcance&quot;&lt;/font&gt;&lt;/font&gt;&lt;font face=&quot;Comic Sans MS&quot; style=&quot;font-size: 13px;&quot;&gt;&lt;font color=&quot;#0f0f0f&quot; style=&quot;font-size: 13px;&quot;&gt; : &lt;/font&gt;&lt;font color=&quot;#009900&quot; style=&quot;font-size: 13px;&quot;&gt;double&lt;/font&gt;&lt;/font&gt;&lt;font face=&quot;Comic Sans MS&quot; style=&quot;font-size: 13px;&quot;&gt;&lt;br style=&quot;font-size: 13px;&quot;&gt;&lt;font color=&quot;#0f0f0f&quot; style=&quot;font-size: 13px;&quot;&gt;}&lt;/font&gt;&lt;/font&gt;" style="align=left;strokeColor=none;fillColor=none;spacingLeft=4;fontSize=13;verticalAlign=top;resizable=0;rotatable=0;part=1;html=1;" vertex="1" parent="JJ6pGFsBF1nlRodCM9yX-64">
          <mxGeometry y="30" width="200" height="110" as="geometry" />
        </mxCell>
        <mxCell id="JJ6pGFsBF1nlRodCM9yX-66" value="" style="endArrow=classic;html=1;rounded=0;elbow=vertical;edgeStyle=orthogonalEdgeStyle;curved=1;startArrow=classic;startFill=0;strokeColor=#E6D0DE;fillColor=#cdeb8b;shadow=0;strokeWidth=2;exitX=1.01;exitY=0.644;exitDx=0;exitDy=0;exitPerimeter=0;entryX=0;entryY=0.25;entryDx=0;entryDy=0;" edge="1" parent="1" source="JJ6pGFsBF1nlRodCM9yX-61" target="JJ6pGFsBF1nlRodCM9yX-65">
          <mxGeometry width="50" height="50" relative="1" as="geometry">
            <mxPoint x="1102" y="861" as="sourcePoint" />
            <mxPoint x="1150" y="1038" as="targetPoint" />
          </mxGeometry>
        </mxCell>
      </root>
    </mxGraphModel>
  </diagram>
</mxfile>
